<svg width="21" height="28" viewBox="0 0 21 28" fill="none" xmlns="http://www.w3.org/2000/svg">
<path d="M0.600649 15.1515L18.8031 27.7513C19.0132 27.8966 19.259 27.9817 19.514 27.9974C19.7689 28.013 20.0233 27.9587 20.2496 27.8401C20.4759 27.7216 20.6654 27.5434 20.7977 27.3249C20.9299 27.1064 20.9999 26.8559 21 26.6005V1.40091C21.0002 1.14538 20.9304 0.894676 20.7982 0.675971C20.6661 0.457267 20.4765 0.278901 20.2502 0.160205C20.0239 0.0415089 19.7694 -0.0129907 19.5143 0.00261302C19.2592 0.0182167 19.0133 0.103328 18.8031 0.248724L0.600649 12.8485C0.415206 12.9779 0.263759 13.1502 0.159184 13.3507C0.0546094 13.5511 0 13.7739 0 14C0 14.2261 0.0546094 14.4489 0.159184 14.6493C0.263759 14.8498 0.415206 15.0221 0.600649 15.1515Z" fill="url(#paint0_linear)"/>
<defs>
<linearGradient id="paint0_linear" x1="0" y1="14" x2="21" y2="14" gradientUnits="userSpaceOnUse">
<stop stop-color="#1E3C72"/>
<stop offset="0.01" stop-color="#1E3C72"/>
<stop offset="1" stop-color="#2A5298"/>
</linearGradient>
</defs>
</svg>
