<svg width="22" height="29" viewBox="0 0 22 29" fill="none" xmlns="http://www.w3.org/2000/svg">
<path d="M21.2714 13.0155L3.06897 0.415714C2.8589 0.270386 2.61308 0.185284 2.35811 0.169624C2.10314 0.153965 1.84875 0.208342 1.62247 0.32687C1.3962 0.445398 1.20667 0.62356 1.07439 0.842064C0.942125 1.06057 0.872158 1.31109 0.872072 1.5665L0.872072 26.7661C0.871902 27.0216 0.941683 27.2723 1.07385 27.491C1.20602 27.7097 1.39553 27.8881 1.62185 28.0068C1.84818 28.1255 2.10267 28.18 2.35776 28.1644C2.61285 28.1488 2.85881 28.0637 3.06897 27.9183L21.2714 15.3185C21.4569 15.1891 21.6083 15.0168 21.7129 14.8163C21.8175 14.6159 21.8721 14.3931 21.8721 14.167C21.8721 13.9409 21.8175 13.7181 21.7129 13.5177C21.6083 13.3172 21.4569 13.1449 21.2714 13.0155Z" fill="url(#paint0_linear)"/>
<defs>
<linearGradient id="paint0_linear" x1="21.8721" y1="14.167" x2="0.87207" y2="14.167" gradientUnits="userSpaceOnUse">
<stop stop-color="#1E3C72"/>
<stop offset="0.01" stop-color="#1E3C72"/>
<stop offset="1" stop-color="#2A5298"/>
</linearGradient>
</defs>
</svg>
