<svg width="1440" height="467" viewBox="0 0 1440 467" fill="none" xmlns="http://www.w3.org/2000/svg">
<rect x="-1" width="1441" height="467" fill="url(#paint0_radial)"/>
<mask id="mask0" mask-type="alpha" maskUnits="userSpaceOnUse" x="-1" y="0" width="1441" height="467">
<rect x="-1" width="1441" height="467" fill="url(#paint1_radial)"/>
</mask>
<g mask="url(#mask0)">
</g>
<g clip-path="url(#clip0)">
<path d="M75.4965 9.57057C75.4965 11.5929 73.8782 13.2108 71.8554 13.2108C69.8326 13.2108 68.2144 11.5929 68.2144 9.57057C68.2144 7.54819 69.8326 5.9303 71.8554 5.9303C73.8782 5.9303 75.4965 7.54819 75.4965 9.57057Z" fill="white" fill-opacity="0.3"/>
<path d="M178.66 31.6144C178.66 33.6368 177.042 35.2547 175.019 35.2547C172.996 35.2547 171.378 33.6368 171.378 31.6144C171.378 29.592 172.996 27.9741 175.019 27.9741C177.042 27.9741 178.66 29.592 178.66 31.6144Z" fill="white" fill-opacity="0.3"/>
<path d="M438.592 21.5025C438.592 23.5248 436.974 25.1427 434.951 25.1427C432.928 25.1427 431.31 23.5248 431.31 21.5025C431.31 19.4801 432.928 17.8622 434.951 17.8622C436.974 17.8622 438.592 19.4801 438.592 21.5025Z" fill="white" fill-opacity="0.3"/>
<path d="M111.3 82.7805C111.3 83.7916 110.491 84.6006 109.48 84.6006C108.469 84.6006 107.659 83.7916 107.659 82.7805C107.659 81.7693 108.469 80.9603 109.48 80.9603C110.491 80.9603 111.3 81.7693 111.3 82.7805Z" fill="white" fill-opacity="0.3"/>
<path d="M145.891 104.824C146.449 104.824 146.902 104.372 146.902 103.813C146.902 103.255 146.449 102.802 145.891 102.802C145.332 102.802 144.879 103.255 144.879 103.813C144.879 104.372 145.332 104.824 145.891 104.824Z" fill="white" fill-opacity="0.3"/>
<path d="M200.304 71.8596C200.863 71.8596 201.316 71.4069 201.316 70.8485C201.316 70.29 200.863 69.8373 200.304 69.8373C199.746 69.8373 199.293 70.29 199.293 70.8485C199.293 71.4069 199.746 71.8596 200.304 71.8596Z" fill="white" fill-opacity="0.3"/>
<path d="M177.851 93.9035C178.41 93.9035 178.862 93.4508 178.862 92.8923C178.862 92.3338 178.41 91.8811 177.851 91.8811C177.292 91.8811 176.84 92.3338 176.84 92.8923C176.84 93.4508 177.292 93.9035 177.851 93.9035Z" fill="white" fill-opacity="0.3"/>
<path d="M165.512 111.094C166.07 111.094 166.523 110.641 166.523 110.082C166.523 109.524 166.07 109.071 165.512 109.071C164.953 109.071 164.5 109.524 164.5 110.082C164.5 110.641 164.953 111.094 165.512 111.094Z" fill="white" fill-opacity="0.3"/>
<path d="M166.726 83.3871C167.284 83.3871 167.737 82.9344 167.737 82.3759C167.737 81.8175 167.284 81.3647 166.726 81.3647C166.167 81.3647 165.714 81.8175 165.714 82.3759C165.714 82.9344 166.167 83.3871 166.726 83.3871Z" fill="white" fill-opacity="0.3"/>
<path d="M63.1575 147.901C64.1629 147.901 64.978 147.086 64.978 146.081C64.978 145.075 64.1629 144.26 63.1575 144.26C62.152 144.26 61.3369 145.075 61.3369 146.081C61.3369 147.086 62.152 147.901 63.1575 147.901Z" fill="white" fill-opacity="0.3"/>
<path d="M73.4738 274.299C73.4738 276.322 71.8555 277.939 69.8327 277.939C67.8099 277.939 66.1917 276.322 66.1917 274.299C66.1917 272.277 67.8099 270.659 69.8327 270.659C71.8555 270.659 73.4738 272.277 73.4738 274.299Z" fill="white" fill-opacity="0.3"/>
<path d="M46.3681 461.571C46.3681 463.593 44.7498 465.211 42.727 465.211C40.7042 465.211 39.0859 463.593 39.0859 461.571C39.0859 459.549 40.7042 457.931 42.727 457.931C44.7498 457.931 46.3681 459.549 46.3681 461.571Z" fill="white" fill-opacity="0.3"/>
<path d="M331.99 186.73C331.99 188.753 330.371 190.371 328.349 190.371C326.326 190.371 324.708 188.753 324.708 186.73C324.708 184.708 326.326 183.09 328.349 183.09C330.371 183.292 331.99 184.91 331.99 186.73Z" fill="white" fill-opacity="0.3"/>
<g opacity="0.8">
<path opacity="0.28" d="M327.337 186.528L328.753 143.654L329.562 186.124L329.36 234.054L327.337 186.528Z" fill="white" fill-opacity="0.3"/>
<path opacity="0.28" d="M328.753 185.719L371.637 187.135L328.956 187.944L281.217 187.741L328.753 185.719Z" fill="white" fill-opacity="0.3"/>
<path opacity="0.57" d="M327.742 185.921L351.611 165.495L328.956 186.933L303.063 210.392L327.742 185.921Z" fill="white" fill-opacity="0.3"/>
<path opacity="0.57" d="M328.955 186.326L349.184 210.19L327.742 187.539L304.277 161.653L328.955 186.326Z" fill="white" fill-opacity="0.3"/>
</g>
<path d="M570.075 89.8588C570.075 91.8811 568.457 93.4991 566.434 93.4991C564.411 93.4991 562.793 91.8811 562.793 89.8588C562.793 87.8364 564.411 86.2185 566.434 86.2185C568.457 86.2185 570.075 87.8364 570.075 89.8588Z" fill="white" fill-opacity="0.3"/>
<path d="M258.561 97.3414C259.567 97.3414 260.382 96.5265 260.382 95.5213C260.382 94.5161 259.567 93.7012 258.561 93.7012C257.556 93.7012 256.741 94.5161 256.741 95.5213C256.741 96.5265 257.556 97.3414 258.561 97.3414Z" fill="white" fill-opacity="0.3"/>
<path d="M243.593 196.236C243.593 197.247 242.784 198.056 241.772 198.056C240.761 198.056 239.952 197.247 239.952 196.236C239.952 195.224 240.761 194.416 241.772 194.416C242.784 194.618 243.593 195.224 243.593 196.236Z" fill="white" fill-opacity="0.3"/>
<path d="M297.804 315.151C297.804 316.162 296.995 316.971 295.984 316.971C294.972 316.971 294.163 316.162 294.163 315.151C294.163 314.14 294.972 313.331 295.984 313.331C296.995 313.331 297.804 314.14 297.804 315.151Z" fill="white" fill-opacity="0.3"/>
<path d="M169.558 305.444C169.558 306.455 168.748 307.264 167.737 307.264C166.726 307.264 165.917 306.455 165.917 305.444C165.917 304.433 166.726 303.624 167.737 303.624C168.748 303.624 169.558 304.433 169.558 305.444Z" fill="white" fill-opacity="0.3"/>
<path d="M7.73238 101.588C7.73238 102.6 6.92325 103.409 5.91184 103.409C4.90044 103.409 4.09131 102.6 4.09131 101.588C4.09131 100.577 4.90044 99.7683 5.91184 99.7683C6.92325 99.7683 7.73238 100.577 7.73238 101.588Z" fill="white" fill-opacity="0.3"/>
<path d="M192.213 366.519C192.213 367.531 191.404 368.339 190.393 368.339C189.381 368.339 188.572 367.531 188.572 366.519C188.572 365.508 189.381 364.699 190.393 364.699C191.404 364.699 192.213 365.508 192.213 366.519Z" fill="white" fill-opacity="0.3"/>
<path d="M204.148 327.488C204.706 327.488 205.159 327.035 205.159 326.477C205.159 325.918 204.706 325.465 204.148 325.465C203.589 325.465 203.136 325.918 203.136 326.477C203.136 327.035 203.589 327.488 204.148 327.488Z" fill="white" fill-opacity="0.3"/>
<path d="M258.562 294.725C259.12 294.725 259.573 294.272 259.573 293.714C259.573 293.155 259.12 292.703 258.562 292.703C258.003 292.703 257.55 293.155 257.55 293.714C257.55 294.272 258.003 294.725 258.562 294.725Z" fill="white" fill-opacity="0.3"/>
<path d="M361.523 217.875C362.081 217.875 362.534 217.422 362.534 216.864C362.534 216.305 362.081 215.853 361.523 215.853C360.964 215.853 360.511 216.305 360.511 216.864C360.511 217.422 360.964 217.875 361.523 217.875Z" fill="white" fill-opacity="0.3"/>
<path d="M236.108 316.769C236.667 316.769 237.12 316.316 237.12 315.758C237.12 315.199 236.667 314.747 236.108 314.747C235.55 314.747 235.097 315.199 235.097 315.758C235.097 316.316 235.55 316.769 236.108 316.769Z" fill="white" fill-opacity="0.3"/>
<path d="M252.898 358.834C253.456 358.834 253.909 358.382 253.909 357.823C253.909 357.265 253.456 356.812 252.898 356.812C252.339 356.812 251.886 357.265 251.886 357.823C251.886 358.382 252.339 358.834 252.898 358.834Z" fill="white" fill-opacity="0.3"/>
<path d="M318.437 358.632C318.995 358.632 319.448 358.179 319.448 357.621C319.448 357.062 318.995 356.61 318.437 356.61C317.878 356.61 317.425 357.062 317.425 357.621C317.425 358.179 317.878 358.632 318.437 358.632Z" fill="white" fill-opacity="0.3"/>
<path d="M456.595 310.5C457.154 310.5 457.607 310.047 457.607 309.488C457.607 308.93 457.154 308.477 456.595 308.477C456.037 308.477 455.584 308.93 455.584 309.488C455.584 310.047 456.037 310.5 456.595 310.5Z" fill="white" fill-opacity="0.3"/>
<path d="M223.769 333.757C224.328 333.757 224.781 333.304 224.781 332.746C224.781 332.187 224.328 331.735 223.769 331.735C223.211 331.735 222.758 332.187 222.758 332.746C222.758 333.304 223.211 333.757 223.769 333.757Z" fill="white" fill-opacity="0.3"/>
<path d="M322.078 411.618C322.636 411.618 323.089 411.166 323.089 410.607C323.089 410.049 322.636 409.596 322.078 409.596C321.519 409.596 321.066 410.049 321.066 410.607C321.066 411.166 321.519 411.618 322.078 411.618Z" fill="white" fill-opacity="0.3"/>
<path d="M225.185 304.028C225.792 304.23 225.994 304.635 225.994 305.241C225.792 305.848 225.387 306.05 224.78 306.05C224.173 305.848 223.971 305.444 223.971 304.837C223.971 304.23 224.578 304.028 225.185 304.028Z" fill="white" fill-opacity="0.3"/>
<path d="M198.888 450.246C199.447 450.246 199.9 449.793 199.9 449.235C199.9 448.676 199.447 448.223 198.888 448.223C198.33 448.223 197.877 448.676 197.877 449.235C197.877 449.793 198.33 450.246 198.888 450.246Z" fill="white" fill-opacity="0.3"/>
<path d="M164.501 221.717C165.059 221.717 165.512 221.265 165.512 220.706C165.512 220.148 165.059 219.695 164.501 219.695C163.942 219.695 163.489 220.148 163.489 220.706C163.489 221.265 163.942 221.717 164.501 221.717Z" fill="white" fill-opacity="0.3"/>
<path d="M228.017 245.177C228.576 245.177 229.028 244.724 229.028 244.166C229.028 243.607 228.576 243.155 228.017 243.155C227.458 243.155 227.006 243.607 227.006 244.166C227.006 244.724 227.458 245.177 228.017 245.177Z" fill="white" fill-opacity="0.3"/>
<path d="M94.7136 240.121C95.2721 240.121 95.725 239.668 95.725 239.11C95.725 238.551 95.2721 238.099 94.7136 238.099C94.155 238.099 93.7021 238.551 93.7021 239.11C93.7021 239.668 94.155 240.121 94.7136 240.121Z" fill="white" fill-opacity="0.3"/>
<path d="M0.0455877 442.763C0.604173 442.763 1.057 442.31 1.057 441.752C1.057 441.193 0.604173 440.74 0.0455877 440.74C-0.512998 440.74 -0.96582 441.193 -0.96582 441.752C-0.96582 442.31 -0.512998 442.763 0.0455877 442.763Z" fill="white" fill-opacity="0.3"/>
<path d="M73.4738 436.696C74.0324 436.696 74.4852 436.243 74.4852 435.685C74.4852 435.126 74.0324 434.673 73.4738 434.673C72.9152 434.673 72.4624 435.126 72.4624 435.685C72.4624 436.243 72.9152 436.696 73.4738 436.696Z" fill="white" fill-opacity="0.3"/>
<path d="M121.415 370.766C122.42 370.766 123.235 369.951 123.235 368.946C123.235 367.941 122.42 367.126 121.415 367.126C120.409 367.126 119.594 367.941 119.594 368.946C119.594 369.951 120.409 370.766 121.415 370.766Z" fill="white" fill-opacity="0.3"/>
<path d="M518.291 9.57057C518.291 11.5929 516.673 13.2108 514.65 13.2108C512.627 13.2108 511.009 11.5929 511.009 9.57057C511.009 7.54819 512.627 5.9303 514.65 5.9303C516.673 5.9303 518.291 7.54819 518.291 9.57057Z" fill="white" fill-opacity="0.3"/>
<path d="M708.638 10.5817C710.649 10.5817 712.279 8.95189 712.279 6.94142C712.279 4.93096 710.649 3.30115 708.638 3.30115C706.627 3.30115 704.997 4.93096 704.997 6.94142C704.997 8.95189 706.627 10.5817 708.638 10.5817Z" fill="white" fill-opacity="0.3"/>
<path d="M881.589 21.5025C881.589 23.5248 879.971 25.1427 877.948 25.1427C875.925 25.1427 874.307 23.5248 874.307 21.5025C874.307 19.4801 875.925 17.8622 877.948 17.8622C879.971 17.8622 881.589 19.4801 881.589 21.5025Z" fill="white" fill-opacity="0.3"/>
<path d="M554.095 82.7805C554.095 83.7916 553.286 84.6006 552.274 84.6006C551.263 84.6006 550.454 83.7916 550.454 82.7805C550.454 81.7693 551.263 80.9603 552.274 80.9603C553.286 80.9603 554.095 81.7693 554.095 82.7805Z" fill="white" fill-opacity="0.3"/>
<path d="M500.288 197.045C500.847 197.045 501.299 196.592 501.299 196.033C501.299 195.475 500.847 195.022 500.288 195.022C499.729 195.022 499.277 195.475 499.277 196.033C499.277 196.592 499.729 197.045 500.288 197.045Z" fill="white" fill-opacity="0.3"/>
<path d="M643.099 71.8596C643.657 71.8596 644.11 71.4069 644.11 70.8485C644.11 70.29 643.657 69.8373 643.099 69.8373C642.54 69.8373 642.087 70.29 642.087 70.8485C642.087 71.4069 642.54 71.8596 643.099 71.8596Z" fill="white" fill-opacity="0.3"/>
<path d="M620.646 93.9035C621.204 93.9035 621.657 93.4508 621.657 92.8923C621.657 92.3338 621.204 91.8811 620.646 91.8811C620.087 91.8811 619.634 92.3338 619.634 92.8923C619.634 93.4508 620.087 93.9035 620.646 93.9035Z" fill="white" fill-opacity="0.3"/>
<path d="M608.306 111.094C608.865 111.094 609.318 110.641 609.318 110.082C609.318 109.524 608.865 109.071 608.306 109.071C607.748 109.071 607.295 109.524 607.295 110.082C607.295 110.641 607.748 111.094 608.306 111.094Z" fill="white" fill-opacity="0.3"/>
<path d="M353.634 94.9147C354.193 94.9147 354.645 94.462 354.645 93.9035C354.645 93.3451 354.193 92.8923 353.634 92.8923C353.075 92.8923 352.623 93.3451 352.623 93.9035C352.623 94.462 353.075 94.9147 353.634 94.9147Z" fill="white" fill-opacity="0.3"/>
<path d="M507.772 146.081C507.772 147.092 506.963 147.901 505.952 147.901C504.94 147.901 504.131 147.092 504.131 146.081C504.131 145.069 504.94 144.26 505.952 144.26C506.963 144.463 507.772 145.069 507.772 146.081Z" fill="white" fill-opacity="0.3"/>
<path d="M519.1 379.058C519.1 381.08 517.482 382.698 515.459 382.698C513.436 382.698 511.818 381.08 511.818 379.058C511.818 377.036 513.436 375.418 515.459 375.418C517.482 375.62 519.1 377.238 519.1 379.058Z" fill="white" fill-opacity="0.3"/>
<path d="M434.546 394.226C434.546 396.248 432.928 397.866 430.905 397.866C428.882 397.866 427.264 396.248 427.264 394.226C427.264 392.204 428.882 390.586 430.905 390.586C432.928 390.586 434.546 392.204 434.546 394.226Z" fill="white" fill-opacity="0.3"/>
<path d="M774.784 186.73C774.784 188.753 773.166 190.371 771.143 190.371C769.12 190.371 767.502 188.753 767.502 186.73C767.502 184.708 769.12 183.09 771.143 183.09C773.166 183.09 774.784 184.91 774.784 186.73Z" fill="white" fill-opacity="0.3"/>
<path d="M1009.43 93.4991C1011.44 93.4991 1013.07 91.8692 1013.07 89.8588C1013.07 87.8483 1011.44 86.2185 1009.43 86.2185C1007.42 86.2185 1005.79 87.8483 1005.79 89.8588C1005.79 91.8692 1007.42 93.4991 1009.43 93.4991Z" fill="white" fill-opacity="0.3"/>
<path d="M738.98 85.2073C739.986 85.2073 740.801 84.3924 740.801 83.3872C740.801 82.3819 739.986 81.567 738.98 81.567C737.975 81.567 737.16 82.3819 737.16 83.3872C737.16 84.3924 737.975 85.2073 738.98 85.2073Z" fill="white" fill-opacity="0.3"/>
<path d="M442.435 256.502C442.435 257.513 441.626 258.322 440.615 258.322C439.603 258.322 438.794 257.513 438.794 256.502C438.794 255.491 439.603 254.682 440.615 254.682C441.626 254.884 442.435 255.693 442.435 256.502Z" fill="white" fill-opacity="0.3"/>
<path d="M619.634 162.462C620.639 162.462 621.455 161.647 621.455 160.642C621.455 159.637 620.639 158.822 619.634 158.822C618.629 158.822 617.813 159.637 617.813 160.642C617.813 161.647 618.629 162.462 619.634 162.462Z" fill="white" fill-opacity="0.3"/>
<path d="M852.258 214.639C853.263 214.639 854.078 213.824 854.078 212.819C854.078 211.814 853.263 210.999 852.258 210.999C851.252 210.999 850.437 211.814 850.437 212.819C850.437 213.824 851.252 214.639 852.258 214.639Z" fill="white" fill-opacity="0.3"/>
<path d="M612.352 305.444C612.352 306.455 611.543 307.264 610.531 307.264C609.52 307.264 608.711 306.455 608.711 305.444C608.711 304.433 609.52 303.624 610.531 303.624C611.543 303.624 612.352 304.433 612.352 305.444Z" fill="white" fill-opacity="0.3"/>
<path d="M450.527 101.588C450.527 102.6 449.717 103.409 448.706 103.409C447.695 103.409 446.885 102.6 446.885 101.588C446.885 100.577 447.695 99.7683 448.706 99.7683C449.717 99.7683 450.527 100.577 450.527 101.588Z" fill="white" fill-opacity="0.3"/>
<path d="M595.36 355.801C595.36 356.812 594.551 357.621 593.54 357.621C592.528 357.621 591.719 356.812 591.719 355.801C591.719 354.79 592.528 353.981 593.54 353.981C594.551 353.981 595.36 354.79 595.36 355.801Z" fill="white" fill-opacity="0.3"/>
<path d="M647.144 327.488C647.703 327.488 648.156 327.035 648.156 326.477C648.156 325.918 647.703 325.465 647.144 325.465C646.586 325.465 646.133 325.918 646.133 326.477C646.133 327.035 646.586 327.488 647.144 327.488Z" fill="white" fill-opacity="0.3"/>
<path d="M701.356 294.725C701.914 294.725 702.367 294.272 702.367 293.714C702.367 293.155 701.914 292.703 701.356 292.703C700.797 292.703 700.344 293.155 700.344 293.714C700.344 294.272 700.797 294.725 701.356 294.725Z" fill="white" fill-opacity="0.3"/>
<path d="M804.519 217.875C805.078 217.875 805.531 217.422 805.531 216.864C805.531 216.305 805.078 215.853 804.519 215.853C803.961 215.853 803.508 216.305 803.508 216.864C803.508 217.422 803.961 217.875 804.519 217.875Z" fill="white" fill-opacity="0.3"/>
<path d="M786.517 159.631C787.075 159.631 787.528 159.178 787.528 158.619C787.528 158.061 787.075 157.608 786.517 157.608C785.958 157.608 785.505 158.061 785.505 158.619C785.505 159.178 785.958 159.631 786.517 159.631Z" fill="white" fill-opacity="0.3"/>
<path d="M695.692 358.834C696.25 358.834 696.703 358.382 696.703 357.823C696.703 357.265 696.25 356.812 695.692 356.812C695.133 356.812 694.68 357.265 694.68 357.823C694.68 358.382 695.133 358.834 695.692 358.834Z" fill="white" fill-opacity="0.3"/>
<path d="M902.828 138.194C903.387 138.194 903.84 137.741 903.84 137.182C903.84 136.624 903.387 136.171 902.828 136.171C902.27 136.171 901.817 136.624 901.817 137.182C901.817 137.741 902.27 138.194 902.828 138.194Z" fill="white" fill-opacity="0.3"/>
<path d="M899.592 310.5C900.15 310.5 900.603 310.047 900.603 309.488C900.603 308.93 900.15 308.477 899.592 308.477C899.033 308.477 898.58 308.93 898.58 309.488C898.58 310.047 899.033 310.5 899.592 310.5Z" fill="white" fill-opacity="0.3"/>
<path d="M701.558 425.775C702.117 425.775 702.57 425.322 702.57 424.764C702.57 424.205 702.117 423.753 701.558 423.753C701 423.753 700.547 424.205 700.547 424.764C700.547 425.322 701 425.775 701.558 425.775Z" fill="white" fill-opacity="0.3"/>
<path d="M172.592 8.96378C173.151 8.96378 173.603 8.51106 173.603 7.95259C173.603 7.39413 173.151 6.94141 172.592 6.94141C172.033 6.94141 171.581 7.39413 171.581 7.95259C171.581 8.51106 172.033 8.96378 172.592 8.96378Z" fill="white" fill-opacity="0.3"/>
<path d="M764.872 411.618C765.431 411.618 765.884 411.166 765.884 410.607C765.884 410.049 765.431 409.596 764.872 409.596C764.314 409.596 763.861 410.049 763.861 410.607C763.861 411.166 764.314 411.618 764.872 411.618Z" fill="white" fill-opacity="0.3"/>
<path d="M794.608 396.248C795.166 396.248 795.619 395.796 795.619 395.237C795.619 394.679 795.166 394.226 794.608 394.226C794.049 394.226 793.596 394.679 793.596 395.237C793.596 395.796 794.049 396.248 794.608 396.248Z" fill="white" fill-opacity="0.3"/>
<path d="M788.944 377.44C789.502 377.44 789.955 376.987 789.955 376.429C789.955 375.871 789.502 375.418 788.944 375.418C788.385 375.418 787.932 375.871 787.932 376.429C787.932 376.987 788.385 377.44 788.944 377.44Z" fill="white" fill-opacity="0.3"/>
<path d="M667.98 304.028C668.586 304.23 668.789 304.635 668.789 305.241C668.586 305.848 668.182 306.05 667.575 306.05C666.968 305.848 666.766 305.444 666.766 304.837C666.968 304.23 667.373 304.028 667.98 304.028Z" fill="white" fill-opacity="0.3"/>
<path d="M607.295 221.717C607.853 221.717 608.306 221.265 608.306 220.706C608.306 220.148 607.853 219.695 607.295 219.695C606.736 219.695 606.283 220.148 606.283 220.706C606.283 221.265 606.736 221.717 607.295 221.717Z" fill="white" fill-opacity="0.3"/>
<path d="M670.811 245.177C671.37 245.177 671.823 244.724 671.823 244.166C671.823 243.607 671.37 243.155 670.811 243.155C670.253 243.155 669.8 243.607 669.8 244.166C669.8 244.724 670.253 245.177 670.811 245.177Z" fill="white" fill-opacity="0.3"/>
<path d="M1218.79 146.687C1219.35 146.687 1219.8 146.235 1219.8 145.676C1219.8 145.118 1219.35 144.665 1218.79 144.665C1218.23 144.665 1217.78 145.118 1217.78 145.676C1217.78 146.235 1218.23 146.687 1218.79 146.687Z" fill="white" fill-opacity="0.3"/>
<path d="M1273.21 113.925C1273.76 113.925 1274.22 113.472 1274.22 112.914C1274.22 112.355 1273.76 111.903 1273.21 111.903C1272.65 111.903 1272.19 112.355 1272.19 112.914C1272.19 113.472 1272.65 113.925 1273.21 113.925Z" fill="white" fill-opacity="0.3"/>
<path d="M1267.54 178.034C1268.1 178.034 1268.55 177.581 1268.55 177.023C1268.55 176.465 1268.1 176.012 1267.54 176.012C1266.98 176.012 1266.53 176.465 1266.53 177.023C1266.53 177.581 1266.98 178.034 1267.54 178.034Z" fill="white" fill-opacity="0.3"/>
<path d="M1239.83 123.228C1240.44 123.43 1240.64 123.835 1240.64 124.441C1240.44 125.048 1240.03 125.25 1239.42 125.25C1238.82 125.048 1238.62 124.644 1238.62 124.037C1238.82 123.632 1239.22 123.228 1239.83 123.228Z" fill="white" fill-opacity="0.3"/>
<path d="M1242.66 64.3769C1243.22 64.3769 1243.67 63.9241 1243.67 63.3657C1243.67 62.8072 1243.22 62.3545 1242.66 62.3545C1242.1 62.3545 1241.65 62.8072 1241.65 63.3657C1241.65 63.9241 1242.1 64.3769 1242.66 64.3769Z" fill="white" fill-opacity="0.3"/>
<path d="M537.71 240.121C538.269 240.121 538.721 239.668 538.721 239.11C538.721 238.551 538.269 238.099 537.71 238.099C537.152 238.099 536.699 238.551 536.699 239.11C536.699 239.668 537.152 240.121 537.71 240.121Z" fill="white" fill-opacity="0.3"/>
<path d="M1257.83 11.3907C1258.39 11.3907 1258.84 10.9379 1258.84 10.3795C1258.84 9.82101 1258.39 9.36829 1257.83 9.36829C1257.27 9.36829 1256.82 9.82101 1256.82 10.3795C1256.82 10.9379 1257.27 11.3907 1257.83 11.3907Z" fill="white" fill-opacity="0.3"/>
<path d="M1245.9 191.382C1245.49 193.404 1243.67 194.618 1241.85 194.213C1240.03 193.809 1238.62 191.989 1239.02 190.168C1239.42 188.146 1241.25 186.933 1243.07 187.337C1244.89 187.539 1246.3 189.36 1245.9 191.382Z" fill="white" fill-opacity="0.3"/>
<path d="M1262.48 117.565C1262.48 119.588 1260.87 121.205 1258.84 121.205C1256.82 121.205 1255.2 119.588 1255.2 117.565C1255.2 115.543 1256.82 113.925 1258.84 113.925C1260.87 113.925 1262.48 115.543 1262.48 117.565Z" fill="white" fill-opacity="0.3"/>
<path d="M1368.08 121.61C1369.08 121.61 1369.9 120.795 1369.9 119.79C1369.9 118.785 1369.08 117.97 1368.08 117.97C1367.07 117.97 1366.26 118.785 1366.26 119.79C1366.26 120.795 1367.07 121.61 1368.08 121.61Z" fill="white" fill-opacity="0.3"/>
<path d="M1324.38 207.156C1324.38 208.168 1323.57 208.977 1322.56 208.977C1321.55 208.977 1320.74 208.168 1320.74 207.156C1320.74 206.145 1321.55 205.336 1322.56 205.336C1323.57 205.336 1324.38 206.145 1324.38 207.156Z" fill="white" fill-opacity="0.3"/>
<path d="M1404.49 141.834C1405.05 141.834 1405.5 141.381 1405.5 140.823C1405.5 140.264 1405.05 139.811 1404.49 139.811C1403.93 139.811 1403.48 140.264 1403.48 140.823C1403.48 141.381 1403.93 141.834 1404.49 141.834Z" fill="white" fill-opacity="0.3"/>
<path d="M1425.52 118.374C1426.13 118.576 1426.33 118.981 1426.33 119.588C1426.13 120.194 1425.73 120.397 1425.12 120.397C1424.51 120.194 1424.31 119.79 1424.31 119.183C1424.51 118.576 1424.92 118.374 1425.52 118.374Z" fill="white" fill-opacity="0.3"/>
<path d="M1365.85 35.0524C1365.85 35.6592 1365.45 36.0636 1364.84 36.0636C1364.23 36.0636 1363.83 35.6592 1363.83 35.0524C1363.83 34.4457 1364.23 34.0413 1364.84 34.0413C1365.45 34.0413 1365.85 34.4457 1365.85 35.0524Z" fill="white" fill-opacity="0.3"/>
<path d="M1429.37 58.5119C1429.37 59.1186 1428.96 59.5231 1428.36 59.5231C1427.75 59.5231 1427.34 59.1186 1427.34 58.5119C1427.34 57.9052 1427.75 57.5007 1428.36 57.5007C1428.96 57.5007 1429.37 58.1074 1429.37 58.5119Z" fill="white" fill-opacity="0.3"/>
<path d="M1295.25 54.4672C1295.81 54.4672 1296.27 54.0145 1296.27 53.456C1296.27 52.8976 1295.81 52.4448 1295.25 52.4448C1294.7 52.4448 1294.24 52.8976 1294.24 53.456C1294.24 54.0145 1294.7 54.4672 1295.25 54.4672Z" fill="white" fill-opacity="0.3"/>
<path d="M442.84 442.763C443.399 442.763 443.851 442.31 443.851 441.752C443.851 441.193 443.399 440.74 442.84 440.74C442.281 440.74 441.829 441.193 441.829 441.752C441.829 442.31 442.281 442.763 442.84 442.763Z" fill="white" fill-opacity="0.3"/>
<path d="M516.471 436.696C517.029 436.696 517.482 436.243 517.482 435.685C517.482 435.126 517.029 434.673 516.471 434.673C515.912 434.673 515.459 435.126 515.459 435.685C515.459 436.243 515.912 436.696 516.471 436.696Z" fill="white" fill-opacity="0.3"/>
<path d="M399.147 405.349C400.153 405.349 400.968 404.534 400.968 403.529C400.968 402.524 400.153 401.709 399.147 401.709C398.142 401.709 397.327 402.524 397.327 403.529C397.327 404.534 398.142 405.349 399.147 405.349Z" fill="white" fill-opacity="0.3"/>
<path d="M1252.57 322.634C1253.13 322.634 1253.58 322.181 1253.58 321.623C1253.58 321.064 1253.13 320.612 1252.57 320.612C1252.01 320.612 1251.56 321.064 1251.56 321.623C1251.56 322.181 1252.01 322.634 1252.57 322.634Z" fill="white" fill-opacity="0.3"/>
<path d="M1273 389.17C1273 391.192 1271.39 392.81 1269.36 392.81C1267.34 392.81 1265.72 391.192 1265.72 389.17C1265.72 387.148 1267.34 385.53 1269.36 385.53C1271.39 385.53 1273 387.148 1273 389.17Z" fill="white" fill-opacity="0.3"/>
<path d="M1408.33 317.578C1408.33 318.589 1407.52 319.398 1406.51 319.398C1405.5 319.398 1404.69 318.589 1404.69 317.578C1404.69 316.567 1405.5 315.758 1406.51 315.758C1407.52 315.96 1408.33 316.567 1408.33 317.578Z" fill="white" fill-opacity="0.3"/>
<path d="M1361 406.765C1362 406.765 1362.82 405.95 1362.82 404.945C1362.82 403.939 1362 403.124 1361 403.124C1359.99 403.124 1359.18 403.939 1359.18 404.945C1359.18 405.95 1359.99 406.765 1361 406.765Z" fill="white" fill-opacity="0.3"/>
<path d="M1238.82 454.897C1239.38 454.897 1239.83 454.444 1239.83 453.886C1239.83 453.327 1239.38 452.875 1238.82 452.875C1238.26 452.875 1237.81 453.327 1237.81 453.886C1237.81 454.444 1238.26 454.897 1238.82 454.897Z" fill="white" fill-opacity="0.3"/>
<path d="M1312.45 448.83C1313.01 448.83 1313.46 448.377 1313.46 447.819C1313.46 447.26 1313.01 446.808 1312.45 446.808C1311.89 446.808 1311.44 447.26 1311.44 447.819C1311.44 448.377 1311.89 448.83 1312.45 448.83Z" fill="white" fill-opacity="0.3"/>
<path d="M991.023 145.07C991.023 146.081 990.214 146.89 989.203 146.89C988.191 146.89 987.382 146.081 987.382 145.07C987.382 144.058 988.191 143.249 989.203 143.249C990.214 143.249 991.023 144.058 991.023 145.07Z" fill="white" fill-opacity="0.3"/>
<path d="M937.216 259.131C937.775 259.131 938.228 258.679 938.228 258.12C938.228 257.562 937.775 257.109 937.216 257.109C936.658 257.109 936.205 257.562 936.205 258.12C936.205 258.679 936.658 259.131 937.216 259.131Z" fill="white" fill-opacity="0.3"/>
<path d="M1080.03 134.149C1080.59 134.149 1081.04 133.696 1081.04 133.138C1081.04 132.579 1080.59 132.126 1080.03 132.126C1079.47 132.126 1079.02 132.579 1079.02 133.138C1079.02 133.696 1079.47 134.149 1080.03 134.149Z" fill="white" fill-opacity="0.3"/>
<path d="M738.98 15.0309C739.539 15.0309 739.992 14.5782 739.992 14.0197C739.992 13.4613 739.539 13.0085 738.98 13.0085C738.422 13.0085 737.969 13.4613 737.969 14.0197C737.969 14.5782 738.422 15.0309 738.98 15.0309Z" fill="white" fill-opacity="0.3"/>
<path d="M1058.59 53.4561C1059.14 53.4561 1059.6 53.0034 1059.6 52.4449C1059.6 51.8864 1059.14 51.4337 1058.59 51.4337C1058.03 51.4337 1057.57 51.8864 1057.57 52.4449C1057.57 53.0034 1058.03 53.4561 1058.59 53.4561Z" fill="white" fill-opacity="0.3"/>
<path d="M1045.23 173.181C1045.79 173.181 1046.25 172.728 1046.25 172.169C1046.25 171.611 1045.79 171.158 1045.23 171.158C1044.68 171.158 1044.22 171.611 1044.22 172.169C1044.22 172.728 1044.68 173.181 1045.23 173.181Z" fill="white" fill-opacity="0.3"/>
<path d="M812.004 140.014C811.397 140.014 810.993 139.811 810.79 139.205C810.79 138.598 810.993 138.193 811.599 137.991C812.206 137.991 812.611 138.193 812.813 138.8C813.015 139.407 812.611 140.014 812.004 140.014Z" fill="white" fill-opacity="0.3"/>
<path d="M944.701 208.37C944.701 209.381 943.891 210.19 942.88 210.19C941.869 210.19 941.06 209.381 941.06 208.37C941.06 207.359 941.869 206.55 942.88 206.55C943.891 206.55 944.701 207.359 944.701 208.37Z" fill="white" fill-opacity="0.3"/>
<path d="M913.954 439.123C913.954 441.145 912.336 442.763 910.313 442.763C908.29 442.763 906.672 441.145 906.672 439.123C906.672 437.1 908.29 435.482 910.313 435.482C912.336 435.685 913.954 437.1 913.954 439.123Z" fill="white" fill-opacity="0.3"/>
<path d="M566.434 418.697C566.434 420.719 564.816 422.337 562.793 422.337C560.77 422.337 559.152 420.719 559.152 418.697C559.152 416.674 560.77 415.056 562.793 415.056C564.816 415.056 566.434 416.674 566.434 418.697Z" fill="white" fill-opacity="0.3"/>
<path d="M1211.71 249.02C1211.71 251.042 1210.09 252.66 1208.07 252.66C1206.05 252.66 1204.43 251.042 1204.43 249.02C1204.43 246.997 1206.05 245.379 1208.07 245.379C1210.09 245.379 1211.71 246.997 1211.71 249.02Z" fill="white" fill-opacity="0.3"/>
<path d="M1177.73 145.676C1177.73 146.688 1176.92 147.496 1175.91 147.496C1174.9 147.496 1174.09 146.688 1174.09 145.676C1174.09 144.665 1174.9 143.856 1175.91 143.856C1176.92 143.856 1177.73 144.665 1177.73 145.676Z" fill="white" fill-opacity="0.3"/>
<path d="M879.364 318.791C879.364 319.803 878.554 320.612 877.543 320.612C876.532 320.612 875.722 319.803 875.722 318.791C875.722 317.78 876.532 316.971 877.543 316.971C878.554 316.971 879.364 317.78 879.364 318.791Z" fill="white" fill-opacity="0.3"/>
<path d="M1145.57 44.7598C1146.57 44.7598 1147.39 43.9449 1147.39 42.9396C1147.39 41.9344 1146.57 41.1195 1145.57 41.1195C1144.56 41.1195 1143.75 41.9344 1143.75 42.9396C1143.75 43.9449 1144.56 44.7598 1145.57 44.7598Z" fill="white" fill-opacity="0.3"/>
<path d="M1291.01 275.108C1291.01 276.119 1290.2 276.928 1289.19 276.928C1288.17 276.928 1287.37 276.119 1287.37 275.108C1287.37 274.097 1288.17 273.288 1289.19 273.288C1290.2 273.288 1291.01 274.097 1291.01 275.108Z" fill="white" fill-opacity="0.3"/>
<path d="M1090.75 229.2C1091.75 229.2 1092.57 228.385 1092.57 227.38C1092.57 226.375 1091.75 225.56 1090.75 225.56C1089.74 225.56 1088.93 226.375 1088.93 227.38C1088.93 228.385 1089.74 229.2 1090.75 229.2Z" fill="white" fill-opacity="0.3"/>
<path d="M885.634 165.495C886.64 165.495 887.455 164.681 887.455 163.675C887.455 162.67 886.64 161.855 885.634 161.855C884.629 161.855 883.814 162.67 883.814 163.675C883.814 164.681 884.629 165.495 885.634 165.495Z" fill="white" fill-opacity="0.3"/>
<path d="M1003.77 455.099C1003.77 456.111 1002.96 456.92 1001.95 456.92C1000.93 456.92 1000.13 456.111 1000.13 455.099C1000.13 454.088 1000.93 453.279 1001.95 453.279C1002.96 453.279 1003.77 454.088 1003.77 455.099Z" fill="white" fill-opacity="0.3"/>
<path d="M1084.07 389.777C1084.63 389.777 1085.08 389.324 1085.08 388.766C1085.08 388.207 1084.63 387.754 1084.07 387.754C1083.51 387.754 1083.06 388.207 1083.06 388.766C1083.06 389.324 1083.51 389.777 1084.07 389.777Z" fill="white" fill-opacity="0.3"/>
<path d="M1138.28 356.812C1138.84 356.812 1139.3 356.359 1139.3 355.801C1139.3 355.242 1138.84 354.79 1138.28 354.79C1137.73 354.79 1137.27 355.242 1137.27 355.801C1137.27 356.359 1137.73 356.812 1138.28 356.812Z" fill="white" fill-opacity="0.3"/>
<path d="M1241.45 279.962C1242.01 279.962 1242.46 279.509 1242.46 278.951C1242.46 278.392 1242.01 277.939 1241.45 277.939C1240.89 277.939 1240.44 278.392 1240.44 278.951C1240.44 279.509 1240.89 279.962 1241.45 279.962Z" fill="white" fill-opacity="0.3"/>
<path d="M1203.01 230.616C1203.57 230.616 1204.03 230.163 1204.03 229.605C1204.03 229.046 1203.57 228.594 1203.01 228.594C1202.46 228.594 1202 229.046 1202 229.605C1202 230.163 1202.46 230.616 1203.01 230.616Z" fill="white" fill-opacity="0.3"/>
<path d="M1032.49 337.195C1032.49 339.217 1030.87 340.835 1028.85 340.835C1026.83 340.835 1025.21 339.217 1025.21 337.195C1025.21 335.173 1026.83 333.555 1028.85 333.555C1030.87 333.555 1032.49 335.375 1032.49 337.195Z" fill="white" fill-opacity="0.3"/>
<path d="M1339.76 200.483C1340.32 200.483 1340.77 200.03 1340.77 199.471C1340.77 198.913 1340.32 198.46 1339.76 198.46C1339.2 198.46 1338.75 198.913 1338.75 199.471C1338.75 200.03 1339.2 200.483 1339.76 200.483Z" fill="white" fill-opacity="0.3"/>
<path d="M1336.52 372.587C1337.08 372.587 1337.53 372.134 1337.53 371.575C1337.53 371.017 1337.08 370.564 1336.52 370.564C1335.96 370.564 1335.51 371.017 1335.51 371.575C1335.51 372.134 1335.96 372.587 1336.52 372.587Z" fill="white" fill-opacity="0.3"/>
<path d="M1104.91 366.317C1105.51 366.519 1105.72 366.924 1105.72 367.531C1105.51 368.137 1105.11 368.34 1104.5 368.34C1103.9 368.137 1103.69 367.733 1103.69 367.126C1103.9 366.519 1104.3 366.115 1104.91 366.317Z" fill="white" fill-opacity="0.3"/>
<path d="M1044.22 283.804C1044.78 283.804 1045.23 283.352 1045.23 282.793C1045.23 282.235 1044.78 281.782 1044.22 281.782C1043.66 281.782 1043.21 282.235 1043.21 282.793C1043.21 283.352 1043.66 283.804 1044.22 283.804Z" fill="white" fill-opacity="0.3"/>
<path d="M1108.75 306.455C1108.75 307.062 1108.35 307.466 1107.74 307.466C1107.13 307.466 1106.73 307.062 1106.73 306.455C1106.73 305.848 1107.13 305.444 1107.74 305.444C1108.35 305.444 1108.75 305.848 1108.75 306.455Z" fill="white" fill-opacity="0.3"/>
<path d="M974.638 302.208C975.197 302.208 975.65 301.755 975.65 301.197C975.65 300.638 975.197 300.186 974.638 300.186C974.08 300.186 973.627 300.638 973.627 301.197C973.627 301.755 974.08 302.208 974.638 302.208Z" fill="white" fill-opacity="0.3"/>
<path d="M1411.57 456.919C1412.13 456.919 1412.58 456.467 1412.58 455.908C1412.58 455.35 1412.13 454.897 1411.57 454.897C1411.01 454.897 1410.56 455.35 1410.56 455.908C1410.56 456.467 1411.01 456.919 1411.57 456.919Z" fill="white" fill-opacity="0.3"/>
<path d="M1037.75 39.9062C1038.31 39.9062 1038.76 39.4534 1038.76 38.895C1038.76 38.3365 1038.31 37.8838 1037.75 37.8838C1037.19 37.8838 1036.74 38.3365 1036.74 38.895C1036.74 39.4534 1037.19 39.9062 1037.75 39.9062Z" fill="white" fill-opacity="0.3"/>
<path d="M990.214 119.79C990.773 119.79 991.225 119.337 991.225 118.779C991.225 118.22 990.773 117.767 990.214 117.767C989.655 117.767 989.203 118.22 989.203 118.779C989.203 119.337 989.655 119.79 990.214 119.79Z" fill="white" fill-opacity="0.3"/>
<path d="M1107.54 49.0067C1108.1 49.0067 1108.55 48.554 1108.55 47.9956C1108.55 47.4371 1108.1 46.9844 1107.54 46.9844C1106.98 46.9844 1106.53 47.4371 1106.53 47.9956C1106.53 48.554 1106.98 49.0067 1107.54 49.0067Z" fill="white" fill-opacity="0.3"/>
<path d="M1082.45 5.72802C1082.05 6.1325 1081.44 5.93026 1081.04 5.52578C1080.63 5.12131 1080.84 4.5146 1081.24 4.11012C1081.65 3.70565 1082.25 3.90788 1082.66 4.31236C1082.86 4.71683 1082.86 5.32355 1082.45 5.72802Z" fill="white" fill-opacity="0.3"/>
<path d="M940.655 41.9285C941.214 41.9285 941.666 41.4758 941.666 40.9173C941.666 40.3589 941.214 39.9061 940.655 39.9061C940.096 39.9061 939.644 40.3589 939.644 40.9173C939.644 41.4758 940.096 41.9285 940.655 41.9285Z" fill="white" fill-opacity="0.3"/>
<path d="M1156.29 97.5438C1156.29 98.555 1155.48 99.3639 1154.47 99.3639C1153.46 99.3639 1152.65 98.555 1152.65 97.5438C1152.65 96.5326 1153.46 95.7236 1154.47 95.7236C1155.48 95.7236 1156.29 96.5326 1156.29 97.5438Z" fill="white" fill-opacity="0.3"/>
<path d="M1236.59 32.2211C1237.15 32.2211 1237.6 31.7684 1237.6 31.2099C1237.6 30.6515 1237.15 30.1987 1236.59 30.1987C1236.03 30.1987 1235.58 30.6515 1235.58 31.2099C1235.58 31.7684 1236.03 32.2211 1236.59 32.2211Z" fill="white" fill-opacity="0.3"/>
<path d="M1257.63 8.55933C1258.24 8.76156 1258.44 9.16604 1258.44 9.77275C1258.24 10.3795 1257.83 10.5817 1257.23 10.5817C1256.62 10.3795 1256.42 9.97499 1256.42 9.36827C1256.42 8.9638 1257.02 8.55933 1257.63 8.55933Z" fill="white" fill-opacity="0.3"/>
<path d="M1427.75 369.957C1428.31 369.957 1428.76 369.505 1428.76 368.946C1428.76 368.388 1428.31 367.935 1427.75 367.935C1427.19 367.935 1426.74 368.388 1426.74 368.946C1426.74 369.505 1427.19 369.957 1427.75 369.957Z" fill="white" fill-opacity="0.3"/>
<path d="M836.075 467.436C837.081 467.436 837.896 466.621 837.896 465.616C837.896 464.61 837.081 463.796 836.075 463.796C835.07 463.796 834.255 464.61 834.255 465.616C834.255 466.621 835.07 467.436 836.075 467.436Z" fill="white" fill-opacity="0.3"/>
<path d="M820.904 386.743C820.904 387.754 820.095 388.563 819.084 388.563C818.072 388.563 817.263 387.754 817.263 386.743C817.263 385.732 818.072 384.923 819.084 384.923C820.095 384.923 820.904 385.732 820.904 386.743Z" fill="white" fill-opacity="0.3"/>
<path d="M228.826 458.133C228.826 460.155 227.208 461.773 225.185 461.773C223.162 461.773 221.544 460.155 221.544 458.133C221.544 456.111 223.162 454.493 225.185 454.493C227.208 454.695 228.826 456.313 228.826 458.133Z" fill="white" fill-opacity="0.3"/>
<path d="M75.2944 431.842C75.2944 432.853 74.4853 433.662 73.4739 433.662C72.4624 433.662 71.6533 432.853 71.6533 431.842C71.6533 430.831 72.4624 430.022 73.4739 430.022C74.4853 430.022 75.2944 431.033 75.2944 431.842Z" fill="white" fill-opacity="0.3"/>
<path d="M240.558 430.831C241.117 430.831 241.57 430.378 241.57 429.82C241.57 429.261 241.117 428.809 240.558 428.809C240 428.809 239.547 429.261 239.547 429.82C239.547 430.378 240 430.831 240.558 430.831Z" fill="white" fill-opacity="0.3"/>
<path d="M270.698 412.427C271.257 412.427 271.71 411.974 271.71 411.416C271.71 410.858 271.257 410.405 270.698 410.405C270.14 410.405 269.687 410.858 269.687 411.416C269.687 411.974 270.14 412.427 270.698 412.427Z" fill="white" fill-opacity="0.3"/>
</g>
<defs>
<radialGradient id="paint0_radial" cx="0" cy="0" r="1" gradientUnits="userSpaceOnUse" gradientTransform="translate(719.5 233.5) rotate(180) scale(0.5 0.16204)">
<stop stop-color="#747474"/>
<stop offset="0.01" stop-color="#1E3C72"/>
<stop offset="1" stop-color="#2A5298"/>
</radialGradient>
<radialGradient id="paint1_radial" cx="0" cy="0" r="1" gradientUnits="userSpaceOnUse" gradientTransform="translate(719.5 233.5) rotate(180) scale(0.5 0.16204)">
<stop stop-color="#747474"/>
<stop offset="0.01" stop-color="#1E3C72"/>
<stop offset="1" stop-color="#2A5298"/>
</radialGradient>
<clipPath id="clip0">
<rect width="1443" height="467" fill="white" transform="translate(-4)"/>
</clipPath>
</defs>
</svg>
