<svg width="1440" height="922" viewBox="0 0 1440 922" fill="none" xmlns="http://www.w3.org/2000/svg">
<rect y="40" width="1440" height="808" fill="url(#paint0_linear)"/>
<path d="M65.4965 51.5705C65.4965 53.5929 63.8782 55.2108 61.8554 55.2108C59.8326 55.2108 58.2144 53.5929 58.2144 51.5705C58.2144 49.5481 59.8326 47.9302 61.8554 47.9302C63.8782 47.9302 65.4965 49.5481 65.4965 51.5705Z" fill="white" fill-opacity="0.3"/>
<path d="M168.66 73.6144C168.66 75.6368 167.042 77.2547 165.019 77.2547C162.996 77.2547 161.378 75.6368 161.378 73.6144C161.378 71.592 162.996 69.9741 165.019 69.9741C167.042 69.9741 168.66 71.592 168.66 73.6144Z" fill="white" fill-opacity="0.3"/>
<path d="M428.592 63.5025C428.592 65.5249 426.974 67.1428 424.951 67.1428C422.928 67.1428 421.31 65.5249 421.31 63.5025C421.31 61.4801 422.928 59.8622 424.951 59.8622C426.974 59.8622 428.592 61.4801 428.592 63.5025Z" fill="white" fill-opacity="0.3"/>
<path d="M101.907 24.8752C101.907 25.8864 101.098 26.6953 100.087 26.6953C99.0755 26.6953 98.2664 25.8864 98.2664 24.8752C98.2664 23.864 99.0755 23.0551 100.087 23.0551C101.098 23.0551 101.907 23.864 101.907 24.8752Z" fill="white" fill-opacity="0.3"/>
<path d="M175.336 15.5723C175.336 16.5835 174.527 17.3924 173.515 17.3924C172.504 17.3924 171.695 16.5835 171.695 15.5723C171.695 14.5611 172.504 13.7521 173.515 13.7521C174.527 13.7521 175.336 14.5611 175.336 15.5723Z" fill="white" fill-opacity="0.3"/>
<path d="M101.3 124.78C101.3 125.792 100.491 126.601 99.4799 126.601C98.4685 126.601 97.6594 125.792 97.6594 124.78C97.6594 123.769 98.4685 122.96 99.4799 122.96C100.491 122.96 101.3 123.769 101.3 124.78Z" fill="white" fill-opacity="0.3"/>
<path d="M135.891 146.824C136.449 146.824 136.902 146.372 136.902 145.813C136.902 145.255 136.449 144.802 135.891 144.802C135.332 144.802 134.879 145.255 134.879 145.813C134.879 146.372 135.332 146.824 135.891 146.824Z" fill="white" fill-opacity="0.3"/>
<path d="M190.304 113.86C190.863 113.86 191.316 113.407 191.316 112.848C191.316 112.29 190.863 111.837 190.304 111.837C189.746 111.837 189.293 112.29 189.293 112.848C189.293 113.407 189.746 113.86 190.304 113.86Z" fill="white" fill-opacity="0.3"/>
<path d="M167.851 135.903C168.41 135.903 168.862 135.451 168.862 134.892C168.862 134.334 168.41 133.881 167.851 133.881C167.292 133.881 166.84 134.334 166.84 134.892C166.84 135.451 167.292 135.903 167.851 135.903Z" fill="white" fill-opacity="0.3"/>
<path d="M155.512 153.094C156.07 153.094 156.523 152.641 156.523 152.082C156.523 151.524 156.07 151.071 155.512 151.071C154.953 151.071 154.5 151.524 154.5 152.082C154.5 152.641 154.953 153.094 155.512 153.094Z" fill="white" fill-opacity="0.3"/>
<path d="M156.726 125.387C157.284 125.387 157.737 124.934 157.737 124.376C157.737 123.817 157.284 123.365 156.726 123.365C156.167 123.365 155.714 123.817 155.714 124.376C155.714 124.934 156.167 125.387 156.726 125.387Z" fill="white" fill-opacity="0.3"/>
<path d="M53.1575 189.901C54.1629 189.901 54.978 189.086 54.978 188.081C54.978 187.075 54.1629 186.26 53.1575 186.26C52.152 186.26 51.3369 187.075 51.3369 188.081C51.3369 189.086 52.152 189.901 53.1575 189.901Z" fill="white" fill-opacity="0.3"/>
<path d="M339.184 12.1342C340.189 12.1342 341.004 11.3193 341.004 10.3141C341.004 9.30886 340.189 8.49396 339.184 8.49396C338.178 8.49396 337.363 9.30886 337.363 10.3141C337.363 11.3193 338.178 12.1342 339.184 12.1342Z" fill="white" fill-opacity="0.3"/>
<path d="M63.4738 316.299C63.4738 318.322 61.8555 319.939 59.8327 319.939C57.8099 319.939 56.1917 318.322 56.1917 316.299C56.1917 314.277 57.8099 312.659 59.8327 312.659C61.8555 312.659 63.4738 314.277 63.4738 316.299Z" fill="white" fill-opacity="0.3"/>
<path d="M36.3681 503.571C36.3681 505.593 34.7498 507.211 32.727 507.211C30.7042 507.211 29.0859 505.593 29.0859 503.571C29.0859 501.549 30.7042 499.931 32.727 499.931C34.7498 499.931 36.3681 501.549 36.3681 503.571Z" fill="white" fill-opacity="0.3"/>
<path d="M321.99 228.73C321.99 230.753 320.371 232.371 318.349 232.371C316.326 232.371 314.708 230.753 314.708 228.73C314.708 226.708 316.326 225.09 318.349 225.09C320.371 225.292 321.99 226.91 321.99 228.73Z" fill="white" fill-opacity="0.3"/>
<g opacity="0.8">
<path opacity="0.28" d="M317.337 228.528L318.753 185.654L319.562 228.124L319.36 276.054L317.337 228.528Z" fill="white" fill-opacity="0.3"/>
<path opacity="0.28" d="M318.753 227.719L361.637 229.135L318.956 229.944L271.217 229.741L318.753 227.719Z" fill="white" fill-opacity="0.3"/>
<path opacity="0.57" d="M317.742 227.921L341.611 207.495L318.956 228.933L293.063 252.392L317.742 227.921Z" fill="white" fill-opacity="0.3"/>
<path opacity="0.57" d="M318.955 228.326L339.184 252.19L317.742 229.539L294.277 203.653L318.955 228.326Z" fill="white" fill-opacity="0.3"/>
</g>
<path d="M560.075 131.859C560.075 133.881 558.457 135.499 556.434 135.499C554.411 135.499 552.793 133.881 552.793 131.859C552.793 129.836 554.411 128.219 556.434 128.219C558.457 128.219 560.075 129.836 560.075 131.859Z" fill="white" fill-opacity="0.3"/>
<path d="M248.561 139.341C249.567 139.341 250.382 138.527 250.382 137.521C250.382 136.516 249.567 135.701 248.561 135.701C247.556 135.701 246.741 136.516 246.741 137.521C246.741 138.527 247.556 139.341 248.561 139.341Z" fill="white" fill-opacity="0.3"/>
<path d="M233.593 238.236C233.593 239.247 232.784 240.056 231.772 240.056C230.761 240.056 229.952 239.247 229.952 238.236C229.952 237.224 230.761 236.416 231.772 236.416C232.784 236.618 233.593 237.224 233.593 238.236Z" fill="white" fill-opacity="0.3"/>
<path d="M287.804 357.151C287.804 358.162 286.995 358.971 285.984 358.971C284.972 358.971 284.163 358.162 284.163 357.151C284.163 356.14 284.972 355.331 285.984 355.331C286.995 355.331 287.804 356.14 287.804 357.151Z" fill="white" fill-opacity="0.3"/>
<path d="M159.558 347.444C159.558 348.455 158.748 349.264 157.737 349.264C156.726 349.264 155.917 348.455 155.917 347.444C155.917 346.433 156.726 345.624 157.737 345.624C158.748 345.624 159.558 346.433 159.558 347.444Z" fill="white" fill-opacity="0.3"/>
<path d="M182.213 408.519C182.213 409.531 181.404 410.339 180.393 410.339C179.381 410.339 178.572 409.531 178.572 408.519C178.572 407.508 179.381 406.699 180.393 406.699C181.404 406.699 182.213 407.508 182.213 408.519Z" fill="white" fill-opacity="0.3"/>
<path d="M194.148 369.488C194.706 369.488 195.159 369.035 195.159 368.477C195.159 367.918 194.706 367.465 194.148 367.465C193.589 367.465 193.136 367.918 193.136 368.477C193.136 369.035 193.589 369.488 194.148 369.488Z" fill="white" fill-opacity="0.3"/>
<path d="M248.562 336.725C249.12 336.725 249.573 336.272 249.573 335.714C249.573 335.155 249.12 334.703 248.562 334.703C248.003 334.703 247.55 335.155 247.55 335.714C247.55 336.272 248.003 336.725 248.562 336.725Z" fill="white" fill-opacity="0.3"/>
<path d="M351.523 259.875C352.081 259.875 352.534 259.422 352.534 258.864C352.534 258.305 352.081 257.853 351.523 257.853C350.964 257.853 350.511 258.305 350.511 258.864C350.511 259.422 350.964 259.875 351.523 259.875Z" fill="white" fill-opacity="0.3"/>
<path d="M226.108 358.769C226.667 358.769 227.12 358.316 227.12 357.758C227.12 357.199 226.667 356.747 226.108 356.747C225.55 356.747 225.097 357.199 225.097 357.758C225.097 358.316 225.55 358.769 226.108 358.769Z" fill="white" fill-opacity="0.3"/>
<path d="M242.898 400.834C243.456 400.834 243.909 400.382 243.909 399.823C243.909 399.265 243.456 398.812 242.898 398.812C242.339 398.812 241.886 399.265 241.886 399.823C241.886 400.382 242.339 400.834 242.898 400.834Z" fill="white" fill-opacity="0.3"/>
<path d="M308.437 400.632C308.995 400.632 309.448 400.179 309.448 399.621C309.448 399.062 308.995 398.61 308.437 398.61C307.878 398.61 307.425 399.062 307.425 399.621C307.425 400.179 307.878 400.632 308.437 400.632Z" fill="white" fill-opacity="0.3"/>
<path d="M446.595 352.5C447.154 352.5 447.607 352.047 447.607 351.488C447.607 350.93 447.154 350.477 446.595 350.477C446.037 350.477 445.584 350.93 445.584 351.488C445.584 352.047 446.037 352.5 446.595 352.5Z" fill="white" fill-opacity="0.3"/>
<path d="M213.769 375.757C214.328 375.757 214.781 375.304 214.781 374.746C214.781 374.187 214.328 373.735 213.769 373.735C213.211 373.735 212.758 374.187 212.758 374.746C212.758 375.304 213.211 375.757 213.769 375.757Z" fill="white" fill-opacity="0.3"/>
<path d="M312.078 453.618C312.636 453.618 313.089 453.166 313.089 452.607C313.089 452.049 312.636 451.596 312.078 451.596C311.519 451.596 311.066 452.049 311.066 452.607C311.066 453.166 311.519 453.618 312.078 453.618Z" fill="white" fill-opacity="0.3"/>
<path d="M215.185 346.028C215.792 346.23 215.994 346.635 215.994 347.241C215.792 347.848 215.387 348.05 214.78 348.05C214.173 347.848 213.971 347.444 213.971 346.837C213.971 346.23 214.578 346.028 215.185 346.028Z" fill="white" fill-opacity="0.3"/>
<path d="M188.888 492.246C189.447 492.246 189.9 491.793 189.9 491.235C189.9 490.676 189.447 490.223 188.888 490.223C188.33 490.223 187.877 490.676 187.877 491.235C187.877 491.793 188.33 492.246 188.888 492.246Z" fill="white" fill-opacity="0.3"/>
<path d="M154.501 263.717C155.059 263.717 155.512 263.265 155.512 262.706C155.512 262.148 155.059 261.695 154.501 261.695C153.942 261.695 153.489 262.148 153.489 262.706C153.489 263.265 153.942 263.717 154.501 263.717Z" fill="white" fill-opacity="0.3"/>
<path d="M218.017 287.177C218.576 287.177 219.028 286.724 219.028 286.166C219.028 285.607 218.576 285.155 218.017 285.155C217.458 285.155 217.006 285.607 217.006 286.166C217.006 286.724 217.458 287.177 218.017 287.177Z" fill="white" fill-opacity="0.3"/>
<path d="M84.7136 282.121C85.2721 282.121 85.725 281.668 85.725 281.11C85.725 280.551 85.2721 280.099 84.7136 280.099C84.155 280.099 83.7021 280.551 83.7021 281.11C83.7021 281.668 84.155 282.121 84.7136 282.121Z" fill="white" fill-opacity="0.3"/>
<path d="M63.4738 478.696C64.0324 478.696 64.4852 478.243 64.4852 477.685C64.4852 477.126 64.0324 476.673 63.4738 476.673C62.9152 476.673 62.4624 477.126 62.4624 477.685C62.4624 478.243 62.9152 478.696 63.4738 478.696Z" fill="white" fill-opacity="0.3"/>
<path d="M111.415 412.766C112.42 412.766 113.235 411.951 113.235 410.946C113.235 409.941 112.42 409.126 111.415 409.126C110.409 409.126 109.594 409.941 109.594 410.946C109.594 411.951 110.409 412.766 111.415 412.766Z" fill="white" fill-opacity="0.3"/>
<path d="M78.038 556.153C78.038 557.164 77.2289 557.973 76.2175 557.973C75.2061 557.973 74.397 557.164 74.397 556.153C74.397 555.141 75.2061 554.333 76.2175 554.333C77.2289 554.333 78.038 555.141 78.038 556.153Z" fill="white" fill-opacity="0.3"/>
<path d="M508.291 51.5705C508.291 53.5929 506.673 55.2108 504.65 55.2108C502.627 55.2108 501.009 53.5929 501.009 51.5705C501.009 49.5481 502.627 47.9302 504.65 47.9302C506.673 47.9302 508.291 49.5481 508.291 51.5705Z" fill="white" fill-opacity="0.3"/>
<path d="M698.638 52.5818C700.649 52.5818 702.279 50.952 702.279 48.9415C702.279 46.931 700.649 45.3012 698.638 45.3012C696.627 45.3012 694.997 46.931 694.997 48.9415C694.997 50.952 696.627 52.5818 698.638 52.5818Z" fill="white" fill-opacity="0.3"/>
<path d="M436.076 10.9208C436.076 12.9432 434.458 14.5611 432.435 14.5611C430.412 14.5611 428.794 12.9432 428.794 10.9208C428.794 8.89842 430.412 7.28052 432.435 7.28052C434.458 7.48275 436.076 9.10065 436.076 10.9208Z" fill="white" fill-opacity="0.3"/>
<path d="M871.589 63.5025C871.589 65.5249 869.971 67.1428 867.948 67.1428C865.925 67.1428 864.307 65.5249 864.307 63.5025C864.307 61.4801 865.925 59.8622 867.948 59.8622C869.971 59.8622 871.589 61.4801 871.589 63.5025Z" fill="white" fill-opacity="0.3"/>
<path d="M542.881 26.6953C543.887 26.6953 544.702 25.8804 544.702 24.8752C544.702 23.87 543.887 23.0551 542.881 23.0551C541.876 23.0551 541.061 23.87 541.061 24.8752C541.061 25.8804 541.876 26.6953 542.881 26.6953Z" fill="white" fill-opacity="0.3"/>
<path d="M618.332 15.5723C618.332 16.5835 617.523 17.3924 616.512 17.3924C615.5 17.3924 614.691 16.5835 614.691 15.5723C614.691 14.5611 615.5 13.7521 616.512 13.7521C617.523 13.7521 618.332 14.5611 618.332 15.5723Z" fill="white" fill-opacity="0.3"/>
<path d="M544.095 124.78C544.095 125.792 543.286 126.601 542.274 126.601C541.263 126.601 540.454 125.792 540.454 124.78C540.454 123.769 541.263 122.96 542.274 122.96C543.286 122.96 544.095 123.769 544.095 124.78Z" fill="white" fill-opacity="0.3"/>
<path d="M490.288 239.045C490.847 239.045 491.299 238.592 491.299 238.033C491.299 237.475 490.847 237.022 490.288 237.022C489.729 237.022 489.277 237.475 489.277 238.033C489.277 238.592 489.729 239.045 490.288 239.045Z" fill="white" fill-opacity="0.3"/>
<path d="M633.099 113.86C633.657 113.86 634.11 113.407 634.11 112.848C634.11 112.29 633.657 111.837 633.099 111.837C632.54 111.837 632.087 112.29 632.087 112.848C632.087 113.407 632.54 113.86 633.099 113.86Z" fill="white" fill-opacity="0.3"/>
<path d="M610.646 135.903C611.204 135.903 611.657 135.451 611.657 134.892C611.657 134.334 611.204 133.881 610.646 133.881C610.087 133.881 609.634 134.334 609.634 134.892C609.634 135.451 610.087 135.903 610.646 135.903Z" fill="white" fill-opacity="0.3"/>
<path d="M598.306 153.094C598.865 153.094 599.318 152.641 599.318 152.082C599.318 151.524 598.865 151.071 598.306 151.071C597.748 151.071 597.295 151.524 597.295 152.082C597.295 152.641 597.748 153.094 598.306 153.094Z" fill="white" fill-opacity="0.3"/>
<path d="M343.634 136.915C344.193 136.915 344.645 136.462 344.645 135.904C344.645 135.345 344.193 134.892 343.634 134.892C343.075 134.892 342.623 135.345 342.623 135.904C342.623 136.462 343.075 136.915 343.634 136.915Z" fill="white" fill-opacity="0.3"/>
<path d="M497.772 188.081C497.772 189.092 496.963 189.901 495.952 189.901C494.94 189.901 494.131 189.092 494.131 188.081C494.131 187.069 494.94 186.26 495.952 186.26C496.963 186.463 497.772 187.069 497.772 188.081Z" fill="white" fill-opacity="0.3"/>
<path d="M783.799 10.3141C783.799 11.3253 782.99 12.1342 781.978 12.1342C780.967 12.1342 780.158 11.3253 780.158 10.3141C780.158 9.30291 780.967 8.49396 781.978 8.49396C782.99 8.49396 783.799 9.30291 783.799 10.3141Z" fill="white" fill-opacity="0.3"/>
<path d="M509.1 421.058C509.1 423.08 507.482 424.698 505.459 424.698C503.436 424.698 501.818 423.08 501.818 421.058C501.818 419.036 503.436 417.418 505.459 417.418C507.482 417.62 509.1 419.238 509.1 421.058Z" fill="white" fill-opacity="0.3"/>
<path d="M424.546 436.226C424.546 438.248 422.928 439.866 420.905 439.866C418.882 439.866 417.264 438.248 417.264 436.226C417.264 434.204 418.882 432.586 420.905 432.586C422.928 432.586 424.546 434.204 424.546 436.226Z" fill="white" fill-opacity="0.3"/>
<path d="M294.075 580.826C294.075 582.848 292.457 584.466 290.434 584.466C288.411 584.466 286.793 582.848 286.793 580.826C286.793 578.803 288.411 577.185 290.434 577.185C292.457 577.185 294.075 578.803 294.075 580.826Z" fill="white" fill-opacity="0.3"/>
<path d="M764.784 228.73C764.784 230.753 763.166 232.371 761.143 232.371C759.12 232.371 757.502 230.753 757.502 228.73C757.502 226.708 759.12 225.09 761.143 225.09C763.166 225.09 764.784 226.91 764.784 228.73Z" fill="white" fill-opacity="0.3"/>
<path d="M999.431 135.499C1001.44 135.499 1003.07 133.869 1003.07 131.859C1003.07 129.848 1001.44 128.219 999.431 128.219C997.42 128.219 995.79 129.848 995.79 131.859C995.79 133.869 997.42 135.499 999.431 135.499Z" fill="white" fill-opacity="0.3"/>
<path d="M728.98 127.207C729.986 127.207 730.801 126.392 730.801 125.387C730.801 124.382 729.986 123.567 728.98 123.567C727.975 123.567 727.16 124.382 727.16 125.387C727.16 126.392 727.975 127.207 728.98 127.207Z" fill="white" fill-opacity="0.3"/>
<path d="M432.435 298.502C432.435 299.513 431.626 300.322 430.615 300.322C429.603 300.322 428.794 299.513 428.794 298.502C428.794 297.491 429.603 296.682 430.615 296.682C431.626 296.884 432.435 297.693 432.435 298.502Z" fill="white" fill-opacity="0.3"/>
<path d="M609.634 204.462C610.639 204.462 611.455 203.647 611.455 202.642C611.455 201.637 610.639 200.822 609.634 200.822C608.629 200.822 607.813 201.637 607.813 202.642C607.813 203.647 608.629 204.462 609.634 204.462Z" fill="white" fill-opacity="0.3"/>
<path d="M842.258 256.639C843.263 256.639 844.078 255.824 844.078 254.819C844.078 253.814 843.263 252.999 842.258 252.999C841.252 252.999 840.437 253.814 840.437 254.819C840.437 255.824 841.252 256.639 842.258 256.639Z" fill="white" fill-opacity="0.3"/>
<path d="M602.352 347.444C602.352 348.455 601.543 349.264 600.531 349.264C599.52 349.264 598.711 348.455 598.711 347.444C598.711 346.433 599.52 345.624 600.531 345.624C601.543 345.624 602.352 346.433 602.352 347.444Z" fill="white" fill-opacity="0.3"/>
<path d="M440.527 143.588C440.527 144.6 439.717 145.409 438.706 145.409C437.695 145.409 436.885 144.6 436.885 143.588C436.885 142.577 437.695 141.768 438.706 141.768C439.717 141.768 440.527 142.577 440.527 143.588Z" fill="white" fill-opacity="0.3"/>
<path d="M585.36 397.801C585.36 398.812 584.551 399.621 583.54 399.621C582.528 399.621 581.719 398.812 581.719 397.801C581.719 396.79 582.528 395.981 583.54 395.981C584.551 395.981 585.36 396.79 585.36 397.801Z" fill="white" fill-opacity="0.3"/>
<path d="M637.144 369.488C637.703 369.488 638.156 369.035 638.156 368.477C638.156 367.918 637.703 367.465 637.144 367.465C636.586 367.465 636.133 367.918 636.133 368.477C636.133 369.035 636.586 369.488 637.144 369.488Z" fill="white" fill-opacity="0.3"/>
<path d="M691.356 336.725C691.914 336.725 692.367 336.272 692.367 335.714C692.367 335.155 691.914 334.703 691.356 334.703C690.797 334.703 690.344 335.155 690.344 335.714C690.344 336.272 690.797 336.725 691.356 336.725Z" fill="white" fill-opacity="0.3"/>
<path d="M794.519 259.875C795.078 259.875 795.531 259.422 795.531 258.864C795.531 258.305 795.078 257.853 794.519 257.853C793.961 257.853 793.508 258.305 793.508 258.864C793.508 259.422 793.961 259.875 794.519 259.875Z" fill="white" fill-opacity="0.3"/>
<path d="M776.517 201.631C777.075 201.631 777.528 201.178 777.528 200.619C777.528 200.061 777.075 199.608 776.517 199.608C775.958 199.608 775.505 200.061 775.505 200.619C775.505 201.178 775.958 201.631 776.517 201.631Z" fill="white" fill-opacity="0.3"/>
<path d="M685.692 400.834C686.25 400.834 686.703 400.382 686.703 399.823C686.703 399.265 686.25 398.812 685.692 398.812C685.133 398.812 684.68 399.265 684.68 399.823C684.68 400.382 685.133 400.834 685.692 400.834Z" fill="white" fill-opacity="0.3"/>
<path d="M892.828 180.194C893.387 180.194 893.84 179.741 893.84 179.182C893.84 178.624 893.387 178.171 892.828 178.171C892.27 178.171 891.817 178.624 891.817 179.182C891.817 179.741 892.27 180.194 892.828 180.194Z" fill="white" fill-opacity="0.3"/>
<path d="M889.592 352.5C890.15 352.5 890.603 352.047 890.603 351.488C890.603 350.93 890.15 350.477 889.592 350.477C889.033 350.477 888.58 350.93 888.58 351.488C888.58 352.047 889.033 352.5 889.592 352.5Z" fill="white" fill-opacity="0.3"/>
<path d="M570.391 527.233C570.95 527.233 571.403 526.78 571.403 526.221C571.403 525.663 570.95 525.21 570.391 525.21C569.833 525.21 569.38 525.663 569.38 526.221C569.38 526.78 569.833 527.233 570.391 527.233Z" fill="white" fill-opacity="0.3"/>
<path d="M691.558 467.775C692.117 467.775 692.57 467.322 692.57 466.764C692.57 466.205 692.117 465.753 691.558 465.753C691 465.753 690.547 466.205 690.547 466.764C690.547 467.322 691 467.775 691.558 467.775Z" fill="white" fill-opacity="0.3"/>
<path d="M162.592 50.9638C163.151 50.9638 163.603 50.5111 163.603 49.9527C163.603 49.3942 163.151 48.9415 162.592 48.9415C162.033 48.9415 161.581 49.3942 161.581 49.9527C161.581 50.5111 162.033 50.9638 162.592 50.9638Z" fill="white" fill-opacity="0.3"/>
<path d="M754.872 453.618C755.431 453.618 755.884 453.166 755.884 452.607C755.884 452.049 755.431 451.596 754.872 451.596C754.314 451.596 753.861 452.049 753.861 452.607C753.861 453.166 754.314 453.618 754.872 453.618Z" fill="white" fill-opacity="0.3"/>
<path d="M784.608 438.248C785.166 438.248 785.619 437.796 785.619 437.237C785.619 436.679 785.166 436.226 784.608 436.226C784.049 436.226 783.596 436.679 783.596 437.237C783.596 437.796 784.049 438.248 784.608 438.248Z" fill="white" fill-opacity="0.3"/>
<path d="M778.944 419.44C779.502 419.44 779.955 418.987 779.955 418.429C779.955 417.871 779.502 417.418 778.944 417.418C778.385 417.418 777.932 417.871 777.932 418.429C777.932 418.987 778.385 419.44 778.944 419.44Z" fill="white" fill-opacity="0.3"/>
<path d="M657.98 346.028C658.586 346.23 658.789 346.635 658.789 347.241C658.586 347.848 658.182 348.05 657.575 348.05C656.968 347.848 656.766 347.444 656.766 346.837C656.968 346.23 657.373 346.028 657.98 346.028Z" fill="white" fill-opacity="0.3"/>
<path d="M558.254 540.581C558.813 540.581 559.266 540.128 559.266 539.569C559.266 539.011 558.813 538.558 558.254 538.558C557.696 538.558 557.243 539.011 557.243 539.569C557.243 540.128 557.696 540.581 558.254 540.581Z" fill="white" fill-opacity="0.3"/>
<path d="M597.295 263.717C597.853 263.717 598.306 263.265 598.306 262.706C598.306 262.148 597.853 261.695 597.295 261.695C596.736 261.695 596.283 262.148 596.283 262.706C596.283 263.265 596.736 263.717 597.295 263.717Z" fill="white" fill-opacity="0.3"/>
<path d="M660.811 287.177C661.37 287.177 661.823 286.724 661.823 286.166C661.823 285.607 661.37 285.155 660.811 285.155C660.253 285.155 659.8 285.607 659.8 286.166C659.8 286.724 660.253 287.177 660.811 287.177Z" fill="white" fill-opacity="0.3"/>
<path d="M1208.79 188.687C1209.35 188.687 1209.8 188.235 1209.8 187.676C1209.8 187.118 1209.35 186.665 1208.79 186.665C1208.23 186.665 1207.78 187.118 1207.78 187.676C1207.78 188.235 1208.23 188.687 1208.79 188.687Z" fill="white" fill-opacity="0.3"/>
<path d="M1263.21 155.925C1263.76 155.925 1264.22 155.472 1264.22 154.914C1264.22 154.355 1263.76 153.903 1263.21 153.903C1262.65 153.903 1262.19 154.355 1262.19 154.914C1262.19 155.472 1262.65 155.925 1263.21 155.925Z" fill="white" fill-opacity="0.3"/>
<path d="M1257.54 220.034C1258.1 220.034 1258.55 219.581 1258.55 219.023C1258.55 218.465 1258.1 218.012 1257.54 218.012C1256.98 218.012 1256.53 218.465 1256.53 219.023C1256.53 219.581 1256.98 220.034 1257.54 220.034Z" fill="white" fill-opacity="0.3"/>
<path d="M1229.83 165.228C1230.44 165.43 1230.64 165.835 1230.64 166.441C1230.44 167.048 1230.03 167.25 1229.42 167.25C1228.82 167.048 1228.62 166.644 1228.62 166.037C1228.82 165.632 1229.22 165.228 1229.83 165.228Z" fill="white" fill-opacity="0.3"/>
<path d="M1232.66 106.377C1233.22 106.377 1233.67 105.924 1233.67 105.366C1233.67 104.807 1233.22 104.354 1232.66 104.354C1232.1 104.354 1231.65 104.807 1231.65 105.366C1231.65 105.924 1232.1 106.377 1232.66 106.377Z" fill="white" fill-opacity="0.3"/>
<path d="M527.71 282.121C528.269 282.121 528.721 281.668 528.721 281.11C528.721 280.551 528.269 280.099 527.71 280.099C527.152 280.099 526.699 280.551 526.699 281.11C526.699 281.668 527.152 282.121 527.71 282.121Z" fill="white" fill-opacity="0.3"/>
<path d="M1247.83 53.3907C1248.39 53.3907 1248.84 52.9379 1248.84 52.3795C1248.84 51.821 1248.39 51.3683 1247.83 51.3683C1247.27 51.3683 1246.82 51.821 1246.82 52.3795C1246.82 52.9379 1247.27 53.3907 1247.83 53.3907Z" fill="white" fill-opacity="0.3"/>
<path d="M1235.9 233.382C1235.49 235.404 1233.67 236.618 1231.85 236.213C1230.03 235.809 1228.62 233.989 1229.02 232.168C1229.42 230.146 1231.25 228.933 1233.07 229.337C1234.89 229.539 1236.3 231.36 1235.9 233.382Z" fill="white" fill-opacity="0.3"/>
<path d="M1252.48 159.565C1252.48 161.588 1250.87 163.205 1248.84 163.205C1246.82 163.205 1245.2 161.588 1245.2 159.565C1245.2 157.543 1246.82 155.925 1248.84 155.925C1250.87 155.925 1252.48 157.543 1252.48 159.565Z" fill="white" fill-opacity="0.3"/>
<path d="M1369 16.7857C1369 17.7969 1368.19 18.6058 1367.18 18.6058C1366.17 18.6058 1365.36 17.7969 1365.36 16.7857C1365.36 15.7745 1366.17 14.9656 1367.18 14.9656C1368.19 15.1678 1369 15.9768 1369 16.7857Z" fill="white" fill-opacity="0.3"/>
<path d="M1358.08 163.61C1359.08 163.61 1359.9 162.795 1359.9 161.79C1359.9 160.785 1359.08 159.97 1358.08 159.97C1357.07 159.97 1356.26 160.785 1356.26 161.79C1356.26 162.795 1357.07 163.61 1358.08 163.61Z" fill="white" fill-opacity="0.3"/>
<path d="M1314.38 249.156C1314.38 250.168 1313.57 250.977 1312.56 250.977C1311.55 250.977 1310.74 250.168 1310.74 249.156C1310.74 248.145 1311.55 247.336 1312.56 247.336C1313.57 247.336 1314.38 248.145 1314.38 249.156Z" fill="white" fill-opacity="0.3"/>
<path d="M1394.49 183.834C1395.05 183.834 1395.5 183.381 1395.5 182.823C1395.5 182.264 1395.05 181.811 1394.49 181.811C1393.93 181.811 1393.48 182.264 1393.48 182.823C1393.48 183.381 1393.93 183.834 1394.49 183.834Z" fill="white" fill-opacity="0.3"/>
<path d="M1415.52 160.374C1416.13 160.576 1416.33 160.981 1416.33 161.588C1416.13 162.194 1415.73 162.397 1415.12 162.397C1414.51 162.194 1414.31 161.79 1414.31 161.183C1414.51 160.576 1414.92 160.374 1415.52 160.374Z" fill="white" fill-opacity="0.3"/>
<path d="M1355.85 77.0524C1355.85 77.6591 1355.45 78.0636 1354.84 78.0636C1354.23 78.0636 1353.83 77.6591 1353.83 77.0524C1353.83 76.4457 1354.23 76.0412 1354.84 76.0412C1355.45 76.0412 1355.85 76.4457 1355.85 77.0524Z" fill="white" fill-opacity="0.3"/>
<path d="M1419.37 100.512C1419.37 101.119 1418.96 101.523 1418.36 101.523C1417.75 101.523 1417.34 101.119 1417.34 100.512C1417.34 99.9053 1417.75 99.5008 1418.36 99.5008C1418.96 99.5008 1419.37 100.108 1419.37 100.512Z" fill="white" fill-opacity="0.3"/>
<path d="M1285.25 96.4672C1285.81 96.4672 1286.27 96.0145 1286.27 95.456C1286.27 94.8976 1285.81 94.4448 1285.25 94.4448C1284.7 94.4448 1284.24 94.8976 1284.24 95.456C1284.24 96.0145 1284.7 96.4672 1285.25 96.4672Z" fill="white" fill-opacity="0.3"/>
<path d="M432.84 484.763C433.399 484.763 433.851 484.31 433.851 483.752C433.851 483.193 433.399 482.74 432.84 482.74C432.281 482.74 431.829 483.193 431.829 483.752C431.829 484.31 432.281 484.763 432.84 484.763Z" fill="white" fill-opacity="0.3"/>
<path d="M506.471 478.696C507.029 478.696 507.482 478.243 507.482 477.685C507.482 477.126 507.029 476.673 506.471 476.673C505.912 476.673 505.459 477.126 505.459 477.685C505.459 478.243 505.912 478.696 506.471 478.696Z" fill="white" fill-opacity="0.3"/>
<path d="M389.147 447.349C390.153 447.349 390.968 446.534 390.968 445.529C390.968 444.524 390.153 443.709 389.147 443.709C388.142 443.709 387.327 444.524 387.327 445.529C387.327 446.534 388.142 447.349 389.147 447.349Z" fill="white" fill-opacity="0.3"/>
<path d="M459.744 578.601C460.749 578.601 461.564 577.786 461.564 576.781C461.564 575.776 460.749 574.961 459.744 574.961C458.738 574.961 457.923 575.776 457.923 576.781C457.923 577.786 458.738 578.601 459.744 578.601Z" fill="white" fill-opacity="0.3"/>
<path d="M1242.57 364.634C1243.13 364.634 1243.58 364.181 1243.58 363.623C1243.58 363.064 1243.13 362.612 1242.57 362.612C1242.01 362.612 1241.56 363.064 1241.56 363.623C1241.56 364.181 1242.01 364.634 1242.57 364.634Z" fill="white" fill-opacity="0.3"/>
<path d="M1263 431.17C1263 433.192 1261.39 434.81 1259.36 434.81C1257.34 434.81 1255.72 433.192 1255.72 431.17C1255.72 429.148 1257.34 427.53 1259.36 427.53C1261.39 427.53 1263 429.148 1263 431.17Z" fill="white" fill-opacity="0.3"/>
<path d="M1398.33 359.578C1398.33 360.589 1397.52 361.398 1396.51 361.398C1395.5 361.398 1394.69 360.589 1394.69 359.578C1394.69 358.567 1395.5 357.758 1396.51 357.758C1397.52 357.96 1398.33 358.567 1398.33 359.578Z" fill="white" fill-opacity="0.3"/>
<path d="M1351 448.765C1352 448.765 1352.82 447.95 1352.82 446.945C1352.82 445.939 1352 445.124 1351 445.124C1349.99 445.124 1349.18 445.939 1349.18 446.945C1349.18 447.95 1349.99 448.765 1351 448.765Z" fill="white" fill-opacity="0.3"/>
<path d="M1228.82 496.897C1229.38 496.897 1229.83 496.444 1229.83 495.886C1229.83 495.327 1229.38 494.875 1228.82 494.875C1228.26 494.875 1227.81 495.327 1227.81 495.886C1227.81 496.444 1228.26 496.897 1228.82 496.897Z" fill="white" fill-opacity="0.3"/>
<path d="M1302.45 490.83C1303.01 490.83 1303.46 490.377 1303.46 489.819C1303.46 489.26 1303.01 488.808 1302.45 488.808C1301.89 488.808 1301.44 489.26 1301.44 489.819C1301.44 490.377 1301.89 490.83 1302.45 490.83Z" fill="white" fill-opacity="0.3"/>
<path d="M1257.34 588.915C1257.34 589.926 1256.53 590.735 1255.52 590.735C1254.51 590.735 1253.7 589.926 1253.7 588.915C1253.7 587.904 1254.51 587.095 1255.52 587.095C1256.53 587.095 1257.34 587.904 1257.34 588.915Z" fill="white" fill-opacity="0.3"/>
<path d="M981.023 187.07C981.023 188.081 980.214 188.89 979.203 188.89C978.191 188.89 977.382 188.081 977.382 187.07C977.382 186.058 978.191 185.249 979.203 185.249C980.214 185.249 981.023 186.058 981.023 187.07Z" fill="white" fill-opacity="0.3"/>
<path d="M927.216 301.131C927.775 301.131 928.228 300.679 928.228 300.12C928.228 299.562 927.775 299.109 927.216 299.109C926.658 299.109 926.205 299.562 926.205 300.12C926.205 300.679 926.658 301.131 927.216 301.131Z" fill="white" fill-opacity="0.3"/>
<path d="M1070.03 176.149C1070.59 176.149 1071.04 175.696 1071.04 175.138C1071.04 174.579 1070.59 174.126 1070.03 174.126C1069.47 174.126 1069.02 174.579 1069.02 175.138C1069.02 175.696 1069.47 176.149 1070.03 176.149Z" fill="white" fill-opacity="0.3"/>
<path d="M728.98 57.0309C729.539 57.0309 729.992 56.5782 729.992 56.0197C729.992 55.4613 729.539 55.0085 728.98 55.0085C728.422 55.0085 727.969 55.4613 727.969 56.0197C727.969 56.5782 728.422 57.0309 728.98 57.0309Z" fill="white" fill-opacity="0.3"/>
<path d="M1151.75 40.6497C1152.31 40.6497 1152.76 40.197 1152.76 39.6385C1152.76 39.08 1152.31 38.6273 1151.75 38.6273C1151.19 38.6273 1150.74 39.08 1150.74 39.6385C1150.74 40.197 1151.19 40.6497 1151.75 40.6497Z" fill="white" fill-opacity="0.3"/>
<path d="M1048.59 95.456C1049.14 95.456 1049.6 95.0033 1049.6 94.4448C1049.6 93.8864 1049.14 93.4337 1048.59 93.4337C1048.03 93.4337 1047.57 93.8864 1047.57 94.4448C1047.57 95.0033 1048.03 95.456 1048.59 95.456Z" fill="white" fill-opacity="0.3"/>
<path d="M1035.23 215.181C1035.79 215.181 1036.25 214.728 1036.25 214.169C1036.25 213.611 1035.79 213.158 1035.23 213.158C1034.68 213.158 1034.22 213.611 1034.22 214.169C1034.22 214.728 1034.68 215.181 1035.23 215.181Z" fill="white" fill-opacity="0.3"/>
<path d="M802.004 182.014C801.397 182.014 800.993 181.811 800.79 181.205C800.79 180.598 800.993 180.193 801.599 179.991C802.206 179.991 802.611 180.193 802.813 180.8C803.015 181.407 802.611 182.014 802.004 182.014Z" fill="white" fill-opacity="0.3"/>
<path d="M934.701 250.37C934.701 251.381 933.891 252.19 932.88 252.19C931.869 252.19 931.06 251.381 931.06 250.37C931.06 249.359 931.869 248.55 932.88 248.55C933.891 248.55 934.701 249.359 934.701 250.37Z" fill="white" fill-opacity="0.3"/>
<path d="M367.098 40.6497C368.104 40.6497 368.919 39.8348 368.919 38.8295C368.919 37.8243 368.104 37.0094 367.098 37.0094C366.093 37.0094 365.278 37.8243 365.278 38.8295C365.278 39.8348 366.093 40.6497 367.098 40.6497Z" fill="white" fill-opacity="0.3"/>
<path d="M903.954 481.123C903.954 483.145 902.336 484.763 900.313 484.763C898.29 484.763 896.672 483.145 896.672 481.123C896.672 479.1 898.29 477.482 900.313 477.482C902.336 477.685 903.954 479.1 903.954 481.123Z" fill="white" fill-opacity="0.3"/>
<path d="M621.366 520.357C621.366 522.379 619.748 523.997 617.725 523.997C615.703 523.997 614.084 522.379 614.084 520.357C614.084 518.334 615.703 516.716 617.725 516.716C619.748 516.716 621.366 518.334 621.366 520.357Z" fill="white" fill-opacity="0.3"/>
<path d="M765.391 532.289C765.391 534.311 763.773 535.929 761.75 535.929C759.727 535.929 758.109 534.311 758.109 532.289C758.109 530.266 759.727 528.648 761.75 528.648C763.773 528.648 765.391 530.266 765.391 532.289Z" fill="white" fill-opacity="0.3"/>
<path d="M618.737 587.095C618.737 589.117 617.118 590.735 615.096 590.735C613.073 590.735 611.455 589.117 611.455 587.095C611.455 585.073 613.073 583.455 615.096 583.455C617.118 583.657 618.737 585.275 618.737 587.095Z" fill="white" fill-opacity="0.3"/>
<path d="M731.408 605.701C731.408 607.723 729.789 609.341 727.766 609.341C725.744 609.341 724.125 607.723 724.125 605.701C724.125 603.678 725.744 602.061 727.766 602.061C729.789 602.061 731.408 603.881 731.408 605.701Z" fill="white" fill-opacity="0.3"/>
<path d="M556.434 460.697C556.434 462.719 554.816 464.337 552.793 464.337C550.77 464.337 549.152 462.719 549.152 460.697C549.152 458.674 550.77 457.056 552.793 457.056C554.816 457.056 556.434 458.674 556.434 460.697Z" fill="white" fill-opacity="0.3"/>
<path d="M1201.71 291.02C1201.71 293.042 1200.09 294.66 1198.07 294.66C1196.05 294.66 1194.43 293.042 1194.43 291.02C1194.43 288.997 1196.05 287.379 1198.07 287.379C1200.09 287.379 1201.71 288.997 1201.71 291.02Z" fill="white" fill-opacity="0.3"/>
<path d="M1440 193.946C1440 195.968 1438.38 197.586 1436.36 197.586C1434.34 197.586 1432.72 195.968 1432.72 193.946C1432.72 191.923 1434.34 190.305 1436.36 190.305C1438.38 190.508 1440 191.923 1440 193.946Z" fill="white" fill-opacity="0.3"/>
<path d="M1167.73 187.676C1167.73 188.688 1166.92 189.496 1165.91 189.496C1164.9 189.496 1164.09 188.688 1164.09 187.676C1164.09 186.665 1164.9 185.856 1165.91 185.856C1166.92 185.856 1167.73 186.665 1167.73 187.676Z" fill="white" fill-opacity="0.3"/>
<path d="M869.364 360.791C869.364 361.803 868.554 362.612 867.543 362.612C866.532 362.612 865.722 361.803 865.722 360.791C865.722 359.78 866.532 358.971 867.543 358.971C868.554 358.971 869.364 359.78 869.364 360.791Z" fill="white" fill-opacity="0.3"/>
<path d="M1135.57 86.7598C1136.57 86.7598 1137.39 85.9449 1137.39 84.9396C1137.39 83.9344 1136.57 83.1195 1135.57 83.1195C1134.56 83.1195 1133.75 83.9344 1133.75 84.9396C1133.75 85.9449 1134.56 86.7598 1135.57 86.7598Z" fill="white" fill-opacity="0.3"/>
<path d="M1113.32 24.673C1114.32 24.673 1115.14 23.8581 1115.14 22.8529C1115.14 21.8476 1114.32 21.0327 1113.32 21.0327C1112.31 21.0327 1111.49 21.8476 1111.49 22.8529C1111.49 23.8581 1112.31 24.673 1113.32 24.673Z" fill="white" fill-opacity="0.3"/>
<path d="M1281.01 317.108C1281.01 318.119 1280.2 318.928 1279.19 318.928C1278.17 318.928 1277.37 318.119 1277.37 317.108C1277.37 316.097 1278.17 315.288 1279.19 315.288C1280.2 315.288 1281.01 316.097 1281.01 317.108Z" fill="white" fill-opacity="0.3"/>
<path d="M1080.75 271.2C1081.75 271.2 1082.57 270.385 1082.57 269.38C1082.57 268.375 1081.75 267.56 1080.75 267.56C1079.74 267.56 1078.93 268.375 1078.93 269.38C1078.93 270.385 1079.74 271.2 1080.75 271.2Z" fill="white" fill-opacity="0.3"/>
<path d="M875.634 207.495C876.64 207.495 877.455 206.681 877.455 205.675C877.455 204.67 876.64 203.855 875.634 203.855C874.629 203.855 873.814 204.67 873.814 205.675C873.814 206.681 874.629 207.495 875.634 207.495Z" fill="white" fill-opacity="0.3"/>
<path d="M993.767 497.099C993.767 498.111 992.958 498.92 991.946 498.92C990.935 498.92 990.126 498.111 990.126 497.099C990.126 496.088 990.935 495.279 991.946 495.279C992.958 495.279 993.767 496.088 993.767 497.099Z" fill="white" fill-opacity="0.3"/>
<path d="M1074.07 431.777C1074.63 431.777 1075.08 431.324 1075.08 430.766C1075.08 430.207 1074.63 429.754 1074.07 429.754C1073.51 429.754 1073.06 430.207 1073.06 430.766C1073.06 431.324 1073.51 431.777 1074.07 431.777Z" fill="white" fill-opacity="0.3"/>
<path d="M1128.28 398.812C1128.84 398.812 1129.3 398.359 1129.3 397.801C1129.3 397.242 1128.84 396.79 1128.28 396.79C1127.73 396.79 1127.27 397.242 1127.27 397.801C1127.27 398.359 1127.73 398.812 1128.28 398.812Z" fill="white" fill-opacity="0.3"/>
<path d="M1231.45 321.962C1232.01 321.962 1232.46 321.509 1232.46 320.951C1232.46 320.392 1232.01 319.939 1231.45 319.939C1230.89 319.939 1230.44 320.392 1230.44 320.951C1230.44 321.509 1230.89 321.962 1231.45 321.962Z" fill="white" fill-opacity="0.3"/>
<path d="M1193.01 272.616C1193.57 272.616 1194.03 272.163 1194.03 271.605C1194.03 271.046 1193.57 270.594 1193.01 270.594C1192.46 270.594 1192 271.046 1192 271.605C1192 272.163 1192.46 272.616 1193.01 272.616Z" fill="white" fill-opacity="0.3"/>
<path d="M1022.49 379.195C1022.49 381.217 1020.87 382.835 1018.85 382.835C1016.83 382.835 1015.21 381.217 1015.21 379.195C1015.21 377.173 1016.83 375.555 1018.85 375.555C1020.87 375.555 1022.49 377.375 1022.49 379.195Z" fill="white" fill-opacity="0.3"/>
<path d="M878.264 709.853C878.264 711.875 876.646 713.493 874.623 713.493C872.6 713.493 870.982 711.875 870.982 709.853C870.982 707.831 872.6 706.213 874.623 706.213C876.646 706.213 878.264 707.831 878.264 709.853Z" fill="white" fill-opacity="0.3"/>
<path d="M912.45 751.312C913.455 751.312 914.27 750.497 914.27 749.492C914.27 748.486 913.455 747.671 912.45 747.671C911.444 747.671 910.629 748.486 910.629 749.492C910.629 750.497 911.444 751.312 912.45 751.312Z" fill="white" fill-opacity="0.3"/>
<path d="M1099.36 694.079C1100.36 694.079 1101.18 693.264 1101.18 692.258C1101.18 691.253 1100.36 690.438 1099.36 690.438C1098.35 690.438 1097.54 691.253 1097.54 692.258C1097.54 693.264 1098.35 694.079 1099.36 694.079Z" fill="white" fill-opacity="0.3"/>
<path d="M973.336 732.301C973.895 732.301 974.348 731.849 974.348 731.29C974.348 730.732 973.895 730.279 973.336 730.279C972.778 730.279 972.325 730.732 972.325 731.29C972.325 731.849 972.778 732.301 973.336 732.301Z" fill="white" fill-opacity="0.3"/>
<path d="M1026.13 654.036C1026.69 654.036 1027.14 653.583 1027.14 653.024C1027.14 652.466 1026.69 652.013 1026.13 652.013C1025.57 652.013 1025.12 652.466 1025.12 653.024C1025.12 653.583 1025.57 654.036 1026.13 654.036Z" fill="white" fill-opacity="0.3"/>
<path d="M1079.94 650.597C1080.5 650.597 1080.95 650.145 1080.95 649.586C1080.95 649.028 1080.5 648.575 1079.94 648.575C1079.38 648.575 1078.93 649.028 1078.93 649.586C1078.93 650.145 1079.38 650.597 1079.94 650.597Z" fill="white" fill-opacity="0.3"/>
<path d="M847.315 666.777C847.874 666.777 848.326 666.324 848.326 665.765C848.326 665.207 847.874 664.754 847.315 664.754C846.756 664.754 846.304 665.207 846.304 665.765C846.304 666.324 846.756 666.777 847.315 666.777Z" fill="white" fill-opacity="0.3"/>
<path d="M1329.76 242.483C1330.32 242.483 1330.77 242.03 1330.77 241.471C1330.77 240.913 1330.32 240.46 1329.76 240.46C1329.2 240.46 1328.75 240.913 1328.75 241.471C1328.75 242.03 1329.2 242.483 1329.76 242.483Z" fill="white" fill-opacity="0.3"/>
<path d="M1326.52 414.587C1327.08 414.587 1327.53 414.134 1327.53 413.575C1327.53 413.017 1327.08 412.564 1326.52 412.564C1325.96 412.564 1325.51 413.017 1325.51 413.575C1325.51 414.134 1325.96 414.587 1326.52 414.587Z" fill="white" fill-opacity="0.3"/>
<path d="M1032.4 730.481C1032.96 730.481 1033.41 730.028 1033.41 729.47C1033.41 728.912 1032.96 728.459 1032.4 728.459C1031.84 728.459 1031.39 728.912 1031.39 729.47C1031.39 730.028 1031.84 730.481 1032.4 730.481Z" fill="white" fill-opacity="0.3"/>
<path d="M1149.73 659.496C1150.28 659.496 1150.74 659.043 1150.74 658.485C1150.74 657.926 1150.28 657.474 1149.73 657.474C1149.17 657.474 1148.71 657.926 1148.71 658.485C1148.71 659.043 1149.17 659.496 1149.73 659.496Z" fill="white" fill-opacity="0.3"/>
<path d="M1094.91 408.317C1095.51 408.519 1095.72 408.924 1095.72 409.531C1095.51 410.137 1095.11 410.34 1094.5 410.34C1093.9 410.137 1093.69 409.733 1093.69 409.126C1093.9 408.519 1094.3 408.115 1094.91 408.317Z" fill="white" fill-opacity="0.3"/>
<path d="M1074.88 568.692C1075.49 568.894 1075.69 569.298 1075.69 569.905C1075.49 570.512 1075.08 570.714 1074.48 570.714C1073.87 570.512 1073.67 570.107 1073.67 569.5C1073.87 568.894 1074.27 568.489 1074.88 568.692Z" fill="white" fill-opacity="0.3"/>
<path d="M982.844 652.62C983.402 652.62 983.855 652.167 983.855 651.609C983.855 651.05 983.402 650.597 982.844 650.597C982.285 650.597 981.832 651.05 981.832 651.609C981.832 652.167 982.285 652.62 982.844 652.62Z" fill="white" fill-opacity="0.3"/>
<path d="M1034.22 325.804C1034.78 325.804 1035.23 325.352 1035.23 324.793C1035.23 324.235 1034.78 323.782 1034.22 323.782C1033.66 323.782 1033.21 324.235 1033.21 324.793C1033.21 325.352 1033.66 325.804 1034.22 325.804Z" fill="white" fill-opacity="0.3"/>
<path d="M1098.75 348.455C1098.75 349.062 1098.35 349.466 1097.74 349.466C1097.13 349.466 1096.73 349.062 1096.73 348.455C1096.73 347.848 1097.13 347.444 1097.74 347.444C1098.35 347.444 1098.75 347.848 1098.75 348.455Z" fill="white" fill-opacity="0.3"/>
<path d="M964.638 344.208C965.197 344.208 965.65 343.755 965.65 343.197C965.65 342.638 965.197 342.186 964.638 342.186C964.08 342.186 963.627 342.638 963.627 343.197C963.627 343.755 964.08 344.208 964.638 344.208Z" fill="white" fill-opacity="0.3"/>
<path d="M1132.13 512.065C1132.69 512.065 1133.14 511.612 1133.14 511.054C1133.14 510.495 1132.69 510.042 1132.13 510.042C1131.57 510.042 1131.12 510.495 1131.12 511.054C1131.12 511.612 1131.57 512.065 1132.13 512.065Z" fill="white" fill-opacity="0.3"/>
<path d="M1198.68 708.033C1198.68 709.044 1197.87 709.853 1196.86 709.853C1195.85 709.853 1195.04 709.044 1195.04 708.033C1195.04 707.022 1195.85 706.213 1196.86 706.213C1197.87 706.213 1198.68 707.022 1198.68 708.033Z" fill="white" fill-opacity="0.3"/>
<path d="M1278.78 642.71C1279.34 642.71 1279.79 642.258 1279.79 641.699C1279.79 641.141 1279.34 640.688 1278.78 640.688C1278.22 640.688 1277.77 641.141 1277.77 641.699C1277.77 642.258 1278.22 642.71 1278.78 642.71Z" fill="white" fill-opacity="0.3"/>
<path d="M1333.2 609.746C1333.75 609.746 1334.21 609.293 1334.21 608.734C1334.21 608.176 1333.75 607.723 1333.2 607.723C1332.64 607.723 1332.18 608.176 1332.18 608.734C1332.18 609.293 1332.64 609.746 1333.2 609.746Z" fill="white" fill-opacity="0.3"/>
<path d="M1401.57 498.919C1402.13 498.919 1402.58 498.467 1402.58 497.908C1402.58 497.35 1402.13 496.897 1401.57 496.897C1401.01 496.897 1400.56 497.35 1400.56 497.908C1400.56 498.467 1401.01 498.919 1401.57 498.919Z" fill="white" fill-opacity="0.3"/>
<path d="M1299.82 619.251C1300.43 619.453 1300.63 619.858 1300.63 620.464C1300.43 621.071 1300.02 621.273 1299.41 621.273C1298.81 621.071 1298.61 620.667 1298.61 620.06C1298.81 619.453 1299.21 619.049 1299.82 619.251Z" fill="white" fill-opacity="0.3"/>
<path d="M1027.75 81.9061C1028.31 81.9061 1028.76 81.4534 1028.76 80.8949C1028.76 80.3365 1028.31 79.8837 1027.75 79.8837C1027.19 79.8837 1026.74 80.3365 1026.74 80.8949C1026.74 81.4534 1027.19 81.9061 1027.75 81.9061Z" fill="white" fill-opacity="0.3"/>
<path d="M980.214 161.79C980.773 161.79 981.225 161.337 981.225 160.779C981.225 160.22 980.773 159.768 980.214 159.768C979.655 159.768 979.203 160.22 979.203 160.779C979.203 161.337 979.655 161.79 980.214 161.79Z" fill="white" fill-opacity="0.3"/>
<path d="M1097.54 91.0068C1098.1 91.0068 1098.55 90.5541 1098.55 89.9956C1098.55 89.4372 1098.1 88.9844 1097.54 88.9844C1096.98 88.9844 1096.53 89.4372 1096.53 89.9956C1096.53 90.5541 1096.98 91.0068 1097.54 91.0068Z" fill="white" fill-opacity="0.3"/>
<path d="M1072.45 47.728C1072.05 48.1325 1071.44 47.9303 1071.04 47.5258C1070.63 47.1213 1070.84 46.5146 1071.24 46.1101C1071.65 45.7056 1072.25 45.9079 1072.66 46.3124C1072.86 46.7168 1072.86 47.3235 1072.45 47.728Z" fill="white" fill-opacity="0.3"/>
<path d="M1022.69 0C1023.3 0.202237 1023.5 0.606712 1023.5 1.21342C1023.3 1.82014 1022.9 2.02237 1022.29 2.02237C1021.68 1.82014 1021.48 1.41566 1021.48 0.808949C1021.48 0.202237 1022.09 0 1022.69 0Z" fill="white" fill-opacity="0.3"/>
<path d="M930.655 83.9285C931.214 83.9285 931.666 83.4758 931.666 82.9173C931.666 82.3589 931.214 81.9061 930.655 81.9061C930.096 81.9061 929.644 82.3589 929.644 82.9173C929.644 83.4758 930.096 83.9285 930.655 83.9285Z" fill="white" fill-opacity="0.3"/>
<path d="M1146.29 139.544C1146.29 140.555 1145.48 141.364 1144.47 141.364C1143.46 141.364 1142.65 140.555 1142.65 139.544C1142.65 138.533 1143.46 137.724 1144.47 137.724C1145.48 137.724 1146.29 138.533 1146.29 139.544Z" fill="white" fill-opacity="0.3"/>
<path d="M1192.2 20.0215C1193.21 20.0215 1194.03 19.2066 1194.03 18.2014C1194.03 17.1961 1193.21 16.3812 1192.2 16.3812C1191.2 16.3812 1190.38 17.1961 1190.38 18.2014C1190.38 19.2066 1191.2 20.0215 1192.2 20.0215Z" fill="white" fill-opacity="0.3"/>
<path d="M1226.59 74.2211C1227.15 74.2211 1227.6 73.7684 1227.6 73.2099C1227.6 72.6515 1227.15 72.1987 1226.59 72.1987C1226.03 72.1987 1225.58 72.6515 1225.58 73.2099C1225.58 73.7684 1226.03 74.2211 1226.59 74.2211Z" fill="white" fill-opacity="0.3"/>
<path d="M1247.63 50.5593C1248.24 50.7616 1248.44 51.166 1248.44 51.7728C1248.24 52.3795 1247.83 52.5817 1247.23 52.5817C1246.62 52.3795 1246.42 51.975 1246.42 51.3683C1246.42 50.9638 1247.02 50.5593 1247.63 50.5593Z" fill="white" fill-opacity="0.3"/>
<path d="M1239.13 536.738C1239.69 536.738 1240.15 536.285 1240.15 535.727C1240.15 535.168 1239.69 534.716 1239.13 534.716C1238.58 534.716 1238.12 535.168 1238.12 535.727C1238.12 536.285 1238.58 536.738 1239.13 536.738Z" fill="white" fill-opacity="0.3"/>
<path d="M1302.65 560.4C1303.21 560.4 1303.66 559.947 1303.66 559.388C1303.66 558.83 1303.21 558.377 1302.65 558.377C1302.09 558.377 1301.64 558.83 1301.64 559.388C1301.64 559.947 1302.09 560.4 1302.65 560.4Z" fill="white" fill-opacity="0.3"/>
<path d="M1417.75 411.957C1418.31 411.957 1418.76 411.505 1418.76 410.946C1418.76 410.388 1418.31 409.935 1417.75 409.935C1417.19 409.935 1416.74 410.388 1416.74 410.946C1416.74 411.505 1417.19 411.957 1417.75 411.957Z" fill="white" fill-opacity="0.3"/>
<path d="M1169.55 555.141C1170.11 555.141 1170.56 554.689 1170.56 554.13C1170.56 553.572 1170.11 553.119 1169.55 553.119C1168.99 553.119 1168.54 553.572 1168.54 554.13C1168.54 554.689 1168.99 555.141 1169.55 555.141Z" fill="white" fill-opacity="0.3"/>
<path d="M869.768 547.052C870.327 547.052 870.78 546.599 870.78 546.041C870.78 545.482 870.327 545.03 869.768 545.03C869.21 545.03 868.757 545.482 868.757 546.041C868.757 546.599 869.21 547.052 869.768 547.052Z" fill="white" fill-opacity="0.3"/>
<path d="M782.787 663.339C783.346 663.339 783.798 662.886 783.798 662.327C783.798 661.769 783.346 661.316 782.787 661.316C782.228 661.316 781.776 661.769 781.776 662.327C781.776 662.886 782.228 663.339 782.787 663.339Z" fill="white" fill-opacity="0.3"/>
<path d="M943.399 540.783C943.957 540.783 944.41 540.33 944.41 539.771C944.41 539.213 943.957 538.76 943.399 538.76C942.84 538.76 942.387 539.213 942.387 539.771C942.387 540.33 942.84 540.783 943.399 540.783Z" fill="white" fill-opacity="0.3"/>
<path d="M873.612 674.866C874.17 674.866 874.623 674.413 874.623 673.855C874.623 673.296 874.17 672.844 873.612 672.844C873.053 672.844 872.6 673.296 872.6 673.855C872.6 674.413 873.053 674.866 873.612 674.866Z" fill="white" fill-opacity="0.3"/>
<path d="M826.075 509.436C827.081 509.436 827.896 508.621 827.896 507.616C827.896 506.61 827.081 505.796 826.075 505.796C825.07 505.796 824.255 506.61 824.255 507.616C824.255 508.621 825.07 509.436 826.075 509.436Z" fill="white" fill-opacity="0.3"/>
<path d="M810.904 428.743C810.904 429.754 810.095 430.563 809.084 430.563C808.072 430.563 807.263 429.754 807.263 428.743C807.263 427.732 808.072 426.923 809.084 426.923C810.095 426.923 810.904 427.732 810.904 428.743Z" fill="white" fill-opacity="0.3"/>
<path d="M218.826 500.133C218.826 502.155 217.208 503.773 215.185 503.773C213.162 503.773 211.544 502.155 211.544 500.133C211.544 498.111 213.162 496.493 215.185 496.493C217.208 496.695 218.826 498.313 218.826 500.133Z" fill="white" fill-opacity="0.3"/>
<path d="M65.2944 473.842C65.2944 474.853 64.4853 475.662 63.4739 475.662C62.4624 475.662 61.6533 474.853 61.6533 473.842C61.6533 472.831 62.4624 472.022 63.4739 472.022C64.4853 472.022 65.2944 473.033 65.2944 473.842Z" fill="white" fill-opacity="0.3"/>
<path d="M297.918 526.222C297.918 527.233 297.109 528.042 296.098 528.042C295.086 528.042 294.277 527.233 294.277 526.222C294.277 525.21 295.086 524.401 296.098 524.401C297.109 524.401 297.918 525.21 297.918 526.222Z" fill="white" fill-opacity="0.3"/>
<path d="M56.394 618.846C56.394 619.857 55.5849 620.666 54.5735 620.666C53.5621 620.666 52.7529 619.857 52.7529 618.846C52.7529 617.835 53.5621 617.026 54.5735 617.026C55.5849 617.026 56.394 617.835 56.394 618.846Z" fill="white" fill-opacity="0.3"/>
<path d="M10.6782 706.213C10.6782 707.224 9.86905 708.033 8.85765 708.033C7.84624 708.033 7.03711 707.224 7.03711 706.213C7.03711 705.202 7.84624 704.393 8.85765 704.393C9.86905 704.393 10.6782 705.202 10.6782 706.213Z" fill="white" fill-opacity="0.3"/>
<path d="M90.9841 640.89C91.5426 640.89 91.9955 640.437 91.9955 639.879C91.9955 639.321 91.5426 638.868 90.9841 638.868C90.4255 638.868 89.9727 639.321 89.9727 639.879C89.9727 640.437 90.4255 640.89 90.9841 640.89Z" fill="white" fill-opacity="0.3"/>
<path d="M145.398 608.128C145.956 608.128 146.409 607.675 146.409 607.116C146.409 606.558 145.956 606.105 145.398 606.105C144.839 606.105 144.386 606.558 144.386 607.116C144.386 607.675 144.839 608.128 145.398 608.128Z" fill="white" fill-opacity="0.3"/>
<path d="M248.359 531.278C248.918 531.278 249.37 530.825 249.37 530.266C249.37 529.708 248.918 529.255 248.359 529.255C247.8 529.255 247.348 529.708 247.348 530.266C247.348 530.825 247.8 531.278 248.359 531.278Z" fill="white" fill-opacity="0.3"/>
<path d="M230.558 472.831C231.117 472.831 231.57 472.378 231.57 471.82C231.57 471.261 231.117 470.809 230.558 470.809C230 470.809 229.547 471.261 229.547 471.82C229.547 472.378 230 472.831 230.558 472.831Z" fill="white" fill-opacity="0.3"/>
<path d="M139.734 672.237C140.293 672.237 140.745 671.784 140.745 671.226C140.745 670.667 140.293 670.215 139.734 670.215C139.175 670.215 138.723 670.667 138.723 671.226C138.723 671.784 139.175 672.237 139.734 672.237Z" fill="white" fill-opacity="0.3"/>
<path d="M106.965 770.12C107.523 770.12 107.976 769.667 107.976 769.109C107.976 768.55 107.523 768.097 106.965 768.097C106.406 768.097 105.953 768.55 105.953 769.109C105.953 769.667 106.406 770.12 106.965 770.12Z" fill="white" fill-opacity="0.3"/>
<path d="M224.288 716.122C224.846 716.122 225.299 715.67 225.299 715.111C225.299 714.553 224.846 714.1 224.288 714.1C223.729 714.1 223.276 714.553 223.276 715.111C223.276 715.67 223.729 716.122 224.288 716.122Z" fill="white" fill-opacity="0.3"/>
<path d="M112.021 617.431C112.628 617.633 112.83 618.037 112.83 618.644C112.628 619.251 112.224 619.453 111.617 619.453C111.01 619.251 110.808 618.846 110.808 618.24C110.808 617.633 111.414 617.431 112.021 617.431Z" fill="white" fill-opacity="0.3"/>
<path d="M85.7248 763.648C86.2834 763.648 86.7362 763.195 86.7362 762.637C86.7362 762.079 86.2834 761.626 85.7248 761.626C85.1662 761.626 84.7134 762.079 84.7134 762.637C84.7134 763.195 85.1662 763.648 85.7248 763.648Z" fill="white" fill-opacity="0.3"/>
<path d="M51.3371 535.12C51.8957 535.12 52.3485 534.667 52.3485 534.109C52.3485 533.55 51.8957 533.098 51.3371 533.098C50.7785 533.098 50.3257 533.55 50.3257 534.109C50.3257 534.667 50.7785 535.12 51.3371 535.12Z" fill="white" fill-opacity="0.3"/>
<path d="M114.853 558.58C115.412 558.58 115.865 558.127 115.865 557.568C115.865 557.01 115.412 556.557 114.853 556.557C114.295 556.557 113.842 557.01 113.842 557.568C113.842 558.127 114.295 558.58 114.853 558.58Z" fill="white" fill-opacity="0.3"/>
<path d="M260.698 454.427C261.257 454.427 261.71 453.974 261.71 453.416C261.71 452.858 261.257 452.405 260.698 452.405C260.14 452.405 259.687 452.858 259.687 453.416C259.687 453.974 260.14 454.427 260.698 454.427Z" fill="white" fill-opacity="0.3"/>
<path d="M1299.21 682.753C1299.21 683.764 1298.4 684.573 1297.39 684.573C1296.38 684.573 1295.57 683.764 1295.57 682.753C1295.57 681.742 1296.38 680.933 1297.39 680.933C1298.4 680.933 1299.21 681.742 1299.21 682.753Z" fill="white" fill-opacity="0.3"/>
<path d="M1170.97 673.046C1170.97 674.057 1170.16 674.866 1169.15 674.866C1168.13 674.866 1167.32 674.057 1167.32 673.046C1167.32 672.035 1168.13 671.226 1169.15 671.226C1170.16 671.428 1170.97 672.035 1170.97 673.046Z" fill="white" fill-opacity="0.3"/>
<path d="M1193.62 734.122C1193.62 735.133 1192.81 735.942 1191.8 735.942C1190.79 735.942 1189.98 735.133 1189.98 734.122C1189.98 733.11 1190.79 732.301 1191.8 732.301C1192.81 732.301 1193.62 733.11 1193.62 734.122Z" fill="white" fill-opacity="0.3"/>
<path d="M1205.56 695.09C1206.11 695.09 1206.57 694.637 1206.57 694.079C1206.57 693.52 1206.11 693.067 1205.56 693.067C1205 693.067 1204.54 693.52 1204.54 694.079C1204.54 694.637 1205 695.09 1205.56 695.09Z" fill="white" fill-opacity="0.3"/>
<path d="M138.723 727.448C139.728 727.448 140.543 726.633 140.543 725.628C140.543 724.622 139.728 723.807 138.723 723.807C137.717 723.807 136.902 724.622 136.902 725.628C136.902 726.633 137.717 727.448 138.723 727.448Z" fill="white" fill-opacity="0.3"/>
<path d="M197.991 826.14C198.55 826.14 199.003 825.687 199.003 825.128C199.003 824.57 198.55 824.117 197.991 824.117C197.433 824.117 196.98 824.57 196.98 825.128C196.98 825.687 197.433 826.14 197.991 826.14Z" fill="white" fill-opacity="0.3"/>
<path d="M28.2768 846.565C28.8354 846.565 29.2882 846.113 29.2882 845.554C29.2882 844.996 28.8354 844.543 28.2768 844.543C27.7182 844.543 27.2654 844.996 27.2654 845.554C27.2654 846.113 27.7182 846.565 28.2768 846.565Z" fill="white" fill-opacity="0.3"/>
<path d="M345.252 775.58C345.252 776.187 344.848 776.591 344.241 776.591C343.634 776.591 343.229 776.187 343.229 775.58C343.229 774.974 343.634 774.569 344.241 774.569C344.848 774.569 345.252 774.974 345.252 775.58Z" fill="white" fill-opacity="0.3"/>
<path d="M221.658 797.22C222.265 797.422 222.467 797.826 222.467 798.433C222.265 799.04 221.86 799.242 221.253 799.242C220.647 799.04 220.444 798.635 220.444 798.029C220.647 797.422 221.051 797.017 221.658 797.22Z" fill="white" fill-opacity="0.3"/>
<path d="M100.896 828.162C101.455 828.162 101.907 827.709 101.907 827.151C101.907 826.592 101.455 826.14 100.896 826.14C100.337 826.14 99.8845 826.592 99.8845 827.151C99.8845 827.709 100.337 828.162 100.896 828.162Z" fill="white" fill-opacity="0.3"/>
<path d="M232.379 757.783C232.938 757.783 233.39 757.331 233.39 756.772C233.39 756.214 232.938 755.761 232.379 755.761C231.82 755.761 231.368 756.214 231.368 756.772C231.368 757.331 231.82 757.783 232.379 757.783Z" fill="white" fill-opacity="0.3"/>
<path d="M393.193 824.926C393.193 825.937 392.384 826.746 391.372 826.746C390.361 826.746 389.552 825.937 389.552 824.926C389.552 823.915 390.361 823.106 391.372 823.106C392.384 823.106 393.193 823.915 393.193 824.926Z" fill="white" fill-opacity="0.3"/>
<path d="M316.326 783.872C316.884 783.872 317.337 783.419 317.337 782.861C317.337 782.302 316.884 781.849 316.326 781.849C315.767 781.849 315.314 782.302 315.314 782.861C315.314 783.419 315.767 783.872 316.326 783.872Z" fill="white" fill-opacity="0.3"/>
<path d="M363.66 791.961C364.665 791.961 365.48 791.147 365.48 790.141C365.48 789.136 364.665 788.321 363.66 788.321C362.654 788.321 361.839 789.136 361.839 790.141C361.839 791.147 362.654 791.961 363.66 791.961Z" fill="white" fill-opacity="0.3"/>
<path d="M522.249 797.624C522.249 798.635 521.439 799.444 520.428 799.444C519.417 799.444 518.607 798.635 518.607 797.624C518.607 796.613 519.417 795.804 520.428 795.804C521.439 795.804 522.249 796.613 522.249 797.624Z" fill="white" fill-opacity="0.3"/>
<path d="M400.273 812.185C400.831 812.185 401.284 811.732 401.284 811.174C401.284 810.615 400.831 810.163 400.273 810.163C399.714 810.163 399.261 810.615 399.261 811.174C399.261 811.732 399.714 812.185 400.273 812.185Z" fill="white" fill-opacity="0.3"/>
<path d="M1259.97 662.327C1260.53 662.327 1260.98 661.875 1260.98 661.316C1260.98 660.758 1260.53 660.305 1259.97 660.305C1259.41 660.305 1258.96 660.758 1258.96 661.316C1258.96 661.875 1259.41 662.327 1259.97 662.327Z" fill="white" fill-opacity="0.3"/>
<path d="M1237.52 684.371C1238.07 684.371 1238.53 683.918 1238.53 683.36C1238.53 682.801 1238.07 682.349 1237.52 682.349C1236.96 682.349 1236.5 682.801 1236.5 683.36C1236.5 683.918 1236.96 684.371 1237.52 684.371Z" fill="white" fill-opacity="0.3"/>
<path d="M1254.31 726.436C1254.86 726.436 1255.32 725.984 1255.32 725.425C1255.32 724.867 1254.86 724.414 1254.31 724.414C1253.75 724.414 1253.29 724.867 1253.29 725.425C1253.29 725.984 1253.75 726.436 1254.31 726.436Z" fill="white" fill-opacity="0.3"/>
<path d="M1404.6 661.721C1405.16 661.721 1405.61 661.268 1405.61 660.709C1405.61 660.151 1405.16 659.698 1404.6 659.698C1404.04 659.698 1403.59 660.151 1403.59 660.709C1403.59 661.268 1404.04 661.721 1404.6 661.721Z" fill="white" fill-opacity="0.3"/>
<path d="M1319.84 726.234C1320.4 726.234 1320.86 725.782 1320.86 725.223C1320.86 724.665 1320.4 724.212 1319.84 724.212C1319.29 724.212 1318.83 724.665 1318.83 725.223C1318.83 725.782 1319.29 726.234 1319.84 726.234Z" fill="white" fill-opacity="0.3"/>
<path d="M1225.18 701.359C1225.74 701.359 1226.19 700.906 1226.19 700.348C1226.19 699.789 1225.74 699.337 1225.18 699.337C1224.62 699.337 1224.17 699.789 1224.17 700.348C1224.17 700.906 1224.62 701.359 1225.18 701.359Z" fill="white" fill-opacity="0.3"/>
<path d="M948.051 629.969C948.61 629.969 949.063 629.517 949.063 628.958C949.063 628.4 948.61 627.947 948.051 627.947C947.493 627.947 947.04 628.4 947.04 628.958C947.04 629.517 947.493 629.969 948.051 629.969Z" fill="white" fill-opacity="0.3"/>
<path d="M1226.59 671.63C1227.2 671.832 1227.4 672.237 1227.4 672.844C1227.2 673.45 1226.8 673.652 1226.19 673.652C1225.58 673.45 1225.38 673.046 1225.38 672.439C1225.38 671.832 1225.99 671.63 1226.59 671.63Z" fill="white" fill-opacity="0.3"/>
<path d="M959.783 602.06C960.342 602.06 960.795 601.608 960.795 601.049C960.795 600.491 960.342 600.038 959.783 600.038C959.225 600.038 958.772 600.491 958.772 601.049C958.772 601.608 959.225 602.06 959.783 602.06Z" fill="white" fill-opacity="0.3"/>
<path d="M1429.48 555.344C1429.48 557.366 1427.86 558.984 1425.84 558.984C1423.82 558.984 1422.2 557.366 1422.2 555.344C1422.2 553.321 1423.82 551.703 1425.84 551.703C1427.86 551.703 1429.48 553.321 1429.48 555.344Z" fill="white" fill-opacity="0.3"/>
<path d="M1400.55 772.951C1401.56 772.951 1402.38 772.136 1402.38 771.131C1402.38 770.126 1401.56 769.311 1400.55 769.311C1399.55 769.311 1398.73 770.126 1398.73 771.131C1398.73 772.136 1399.55 772.951 1400.55 772.951Z" fill="white" fill-opacity="0.3"/>
<path d="M989.721 609.948C989.721 611.97 988.103 613.588 986.08 613.588C984.057 613.588 982.439 611.97 982.439 609.948C982.439 607.926 984.057 606.308 986.08 606.308C988.103 606.308 989.721 608.128 989.721 609.948Z" fill="white" fill-opacity="0.3"/>
<path d="M1359.69 738.773C1360.7 738.773 1361.51 737.958 1361.51 736.953C1361.51 735.948 1360.7 735.133 1359.69 735.133C1358.69 735.133 1357.87 735.948 1357.87 736.953C1357.87 737.958 1358.69 738.773 1359.69 738.773Z" fill="white" fill-opacity="0.3"/>
<path d="M1019.25 641.092C1019.81 641.092 1020.27 640.64 1020.27 640.081C1020.27 639.523 1019.81 639.07 1019.25 639.07C1018.7 639.07 1018.24 639.523 1018.24 640.081C1018.24 640.64 1018.7 641.092 1019.25 641.092Z" fill="white" fill-opacity="0.3"/>
<path d="M1001.45 582.848C1002.01 582.848 1002.46 582.395 1002.46 581.837C1002.46 581.278 1002.01 580.826 1001.45 580.826C1000.89 580.826 1000.44 581.278 1000.44 581.837C1000.44 582.395 1000.89 582.848 1001.45 582.848Z" fill="white" fill-opacity="0.3"/>
<path d="M1272.11 780.029C1272.66 780.029 1273.12 779.577 1273.12 779.018C1273.12 778.46 1272.66 778.007 1272.11 778.007C1271.55 778.007 1271.09 778.46 1271.09 779.018C1271.09 779.577 1271.55 780.029 1272.11 780.029Z" fill="white" fill-opacity="0.3"/>
<path d="M285.984 696.101C285.984 698.123 284.365 699.741 282.342 699.741C280.32 699.741 278.701 698.123 278.701 696.101C278.701 694.079 280.32 692.461 282.342 692.461C284.365 692.461 285.984 694.079 285.984 696.101Z" fill="white" fill-opacity="0.3"/>
<path d="M323.406 632.194C323.406 633.205 322.597 634.014 321.585 634.014C320.574 634.014 319.765 633.205 319.765 632.194C319.765 631.183 320.574 630.374 321.585 630.374C322.597 630.374 323.406 631.183 323.406 632.194Z" fill="white" fill-opacity="0.3"/>
<path d="M281.736 779.018C281.736 780.03 280.926 780.838 279.915 780.838C278.904 780.838 278.094 780.03 278.094 779.018C278.094 778.007 278.904 777.198 279.915 777.198C280.926 777.198 281.736 778.007 281.736 779.018Z" fill="white" fill-opacity="0.3"/>
<path d="M751.029 684.169C751.029 685.18 750.22 685.989 749.208 685.989C748.197 685.989 747.388 685.18 747.388 684.169C747.388 683.158 748.197 682.349 749.208 682.349C750.22 682.349 751.029 683.158 751.029 684.169Z" fill="white" fill-opacity="0.3"/>
<path d="M356.782 706.213C357.787 706.213 358.602 705.398 358.602 704.393C358.602 703.387 357.787 702.573 356.782 702.573C355.777 702.573 354.961 703.387 354.961 704.393C354.961 705.398 355.777 706.213 356.782 706.213Z" fill="white" fill-opacity="0.3"/>
<path d="M438.908 639.07C439.467 639.07 439.92 638.617 439.92 638.059C439.92 637.5 439.467 637.048 438.908 637.048C438.35 637.048 437.897 637.5 437.897 638.059C437.897 638.617 438.35 639.07 438.908 639.07Z" fill="white" fill-opacity="0.3"/>
<path d="M487.456 670.215C488.015 670.215 488.467 669.762 488.467 669.203C488.467 668.645 488.015 668.192 487.456 668.192C486.897 668.192 486.445 668.645 486.445 669.203C486.445 669.762 486.897 670.215 487.456 670.215Z" fill="white" fill-opacity="0.3"/>
<path d="M454.889 768.3C455.447 768.3 455.9 767.847 455.9 767.289C455.9 766.73 455.447 766.277 454.889 766.277C454.33 766.277 453.877 766.73 453.877 767.289C453.877 767.847 454.33 768.3 454.889 768.3Z" fill="white" fill-opacity="0.3"/>
<path d="M556.636 723.201C557.195 723.201 557.648 722.748 557.648 722.19C557.648 721.631 557.195 721.178 556.636 721.178C556.078 721.178 555.625 721.631 555.625 722.19C555.625 722.748 556.078 723.201 556.636 723.201Z" fill="white" fill-opacity="0.3"/>
<path d="M433.447 761.626C434.005 761.626 434.458 761.173 434.458 760.615C434.458 760.056 434.005 759.603 433.447 759.603C432.888 759.603 432.435 760.056 432.435 760.615C432.435 761.173 432.888 761.626 433.447 761.626Z" fill="white" fill-opacity="0.3"/>
<path d="M705.718 750.705C705.718 752.727 704.1 754.345 702.077 754.345C700.054 754.345 698.436 752.727 698.436 750.705C698.436 748.683 700.054 747.065 702.077 747.065C704.1 747.065 705.718 748.683 705.718 750.705Z" fill="white" fill-opacity="0.3"/>
<path d="M590.417 716.729C590.417 718.751 588.799 720.369 586.776 720.369C584.753 720.369 583.135 718.751 583.135 716.729C583.135 714.707 584.753 713.089 586.776 713.089C588.799 713.089 590.417 714.707 590.417 716.729Z" fill="white" fill-opacity="0.3"/>
<path d="M671.128 630.171C671.128 631.183 670.319 631.992 669.307 631.992C668.296 631.992 667.487 631.183 667.487 630.171C667.487 629.16 668.296 628.351 669.307 628.351C670.319 628.351 671.128 629.362 671.128 630.171Z" fill="white" fill-opacity="0.3"/>
<path d="M851.158 722.392C851.158 723.403 850.349 724.212 849.338 724.212C848.326 724.212 847.517 723.403 847.517 722.392C847.517 721.381 848.326 720.572 849.338 720.572C850.349 720.572 851.158 721.381 851.158 722.392Z" fill="white" fill-opacity="0.3"/>
<path d="M784.608 922C785.166 922 785.619 921.547 785.619 920.989C785.619 920.43 785.166 919.978 784.608 919.978C784.049 919.978 783.596 920.43 783.596 920.989C783.596 921.547 784.049 922 784.608 922Z" fill="white" fill-opacity="0.3"/>
<path d="M684.276 714.505C684.835 714.505 685.287 714.052 685.287 713.493C685.287 712.935 684.835 712.482 684.276 712.482C683.717 712.482 683.265 712.935 683.265 713.493C683.265 714.052 683.717 714.505 684.276 714.505Z" fill="white" fill-opacity="0.3"/>
<path d="M751.433 673.652C751.992 673.652 752.445 673.2 752.445 672.641C752.445 672.083 751.992 671.63 751.433 671.63C750.875 671.63 750.422 672.083 750.422 672.641C750.422 673.2 750.875 673.652 751.433 673.652Z" fill="white" fill-opacity="0.3"/>
<path d="M627.839 779.018C628.845 779.018 629.66 778.203 629.66 777.198C629.66 776.193 628.845 775.378 627.839 775.378C626.834 775.378 626.019 776.193 626.019 777.198C626.019 778.203 626.834 779.018 627.839 779.018Z" fill="white" fill-opacity="0.3"/>
<path d="M603.566 808.545C603.566 809.556 602.756 810.365 601.745 810.365C600.734 810.365 599.925 809.556 599.925 808.545C599.925 807.534 600.734 806.725 601.745 806.725C602.756 806.725 603.566 807.534 603.566 808.545Z" fill="white" fill-opacity="0.3"/>
<path d="M514.764 721.178C515.77 721.178 516.585 720.363 516.585 719.358C516.585 718.353 515.77 717.538 514.764 717.538C513.759 717.538 512.944 718.353 512.944 719.358C512.944 720.363 513.759 721.178 514.764 721.178Z" fill="white" fill-opacity="0.3"/>
<defs>
<linearGradient id="paint0_linear" x1="0" y1="444" x2="1440" y2="444" gradientUnits="userSpaceOnUse">
<stop stop-color="#1E3C72"/>
<stop offset="0.01" stop-color="#1E3C72"/>
<stop offset="1" stop-color="#2A5298"/>
</linearGradient>
</defs>
</svg>
