<svg width="254" height="288" viewBox="0 0 254 288" fill="none" xmlns="http://www.w3.org/2000/svg">
<path d="M141 8.39231L237.44 64.0718C241.134 66.2045 243.779 67.7341 245.761 69.1552C247.708 70.5508 248.885 71.7523 249.698 73.1603C250.511 74.5682 250.963 76.188 251.198 78.572C251.437 80.9998 251.44 84.0551 251.44 88.3205V199.679C251.44 203.945 251.437 207 251.198 209.428C250.963 211.812 250.511 213.432 249.698 214.84C248.885 216.248 247.708 217.449 245.761 218.845C243.779 220.266 241.134 221.796 237.44 223.928L141 279.608C137.306 281.74 134.659 283.266 132.437 284.273C130.255 285.261 128.626 285.68 127 285.68C125.374 285.68 123.745 285.261 121.563 284.273C119.341 283.266 116.694 281.74 113 279.608L16.5603 223.928C12.8663 221.796 10.2215 220.266 8.2386 218.845C6.2915 217.449 5.11485 216.248 4.30196 214.84C3.48906 213.432 3.03684 211.812 2.80184 209.428C2.56252 207 2.56029 203.945 2.56029 199.679V88.3205C2.56029 84.0551 2.56252 80.9998 2.80184 78.572C3.03684 76.188 3.48906 74.5682 4.30196 73.1603C5.11485 71.7523 6.2915 70.5508 8.2386 69.1553C10.2215 67.7341 12.8663 66.2045 16.5603 64.0718L113 8.39231C116.694 6.25961 119.341 4.73388 121.563 3.72724C123.745 2.73876 125.374 2.32051 127 2.32051C128.626 2.32051 130.255 2.73876 132.437 3.72724C134.659 4.73388 137.306 6.25961 141 8.39231Z" fill="white" stroke="white" stroke-width="4"/>
</svg>
