<svg width="254" height="288" viewBox="0 0 254 288" fill="none" xmlns="http://www.w3.org/2000/svg">
<path d="M112.75 7.95929C116.436 5.83146 119.107 4.29092 121.357 3.27179C123.577 2.26628 125.278 1.82051 127 1.82051C128.722 1.82051 130.423 2.26628 132.643 3.27179C134.893 4.29092 137.564 5.83146 141.25 7.95929L237.69 63.6388C241.375 65.7666 244.045 67.3101 246.053 68.7488C248.033 70.1684 249.27 71.4192 250.131 72.9103C250.992 74.4013 251.457 76.0979 251.696 78.5229C251.938 80.9809 251.94 84.0648 251.94 88.3205V199.679C251.94 203.935 251.938 207.019 251.696 209.477C251.457 211.902 250.992 213.599 250.131 215.09C249.27 216.581 248.033 217.832 246.053 219.251C244.045 220.69 241.375 222.233 237.69 224.361L141.25 280.041C137.564 282.169 134.893 283.709 132.643 284.728C130.423 285.734 128.722 286.18 127 286.18C125.278 286.18 123.577 285.734 121.357 284.728C119.107 283.709 116.436 282.169 112.75 280.041L16.3103 224.361C12.6248 222.233 9.95481 220.69 7.94733 219.251C5.96667 217.832 4.72982 216.581 3.86894 215.09C3.00807 213.599 2.54331 211.902 2.30425 209.477C2.06197 207.019 2.06029 203.935 2.06029 199.679V88.3205C2.06029 84.0648 2.06197 80.9809 2.30425 78.5229C2.54331 76.0979 3.00807 74.4013 3.86894 72.9103C4.72982 71.4192 5.96667 70.1684 7.94733 68.7488C9.95481 67.3101 12.6248 65.7666 16.3103 63.6388L112.75 7.95929Z" fill="#2A5298" stroke="white" stroke-width="3"/>
</svg>
