<svg width="40" height="40" viewBox="0 0 40 40" fill="none" xmlns="http://www.w3.org/2000/svg">
<path d="M18.0177 4.31448C18.1171 4.21479 18.2352 4.1357 18.3653 4.08174C18.4953 4.02778 18.6347 4 18.7755 4C18.9163 4 19.0557 4.02778 19.1858 4.08174C19.3158 4.1357 19.4339 4.21479 19.5334 4.31448L22.7446 7.52575C22.8443 7.62518 22.9234 7.7433 22.9774 7.87335C23.0313 8.00339 23.0591 8.14281 23.0591 8.28361C23.0591 8.4244 23.0313 8.56382 22.9774 8.69386C22.9234 8.82391 22.8443 8.94203 22.7446 9.04146L19.5334 12.2527C19.3324 12.4537 19.0598 12.5666 18.7755 12.5666C18.4913 12.5666 18.2186 12.4537 18.0177 12.2527C17.8167 12.0517 17.7037 11.7791 17.7037 11.4949C17.7037 11.2106 17.8167 10.938 18.0177 10.737L19.3942 9.36259C17.2224 9.4544 15.1301 10.2052 13.3954 11.5152C11.6608 12.8252 10.3661 14.6322 9.6835 16.696C9.00092 18.7598 8.96284 20.9824 9.5743 23.0684C10.1858 25.1543 11.4178 27.0047 13.1066 28.3733C13.3271 28.5522 13.4676 28.8113 13.4971 29.0938C13.5267 29.3762 13.4428 29.6588 13.2639 29.8794C13.0851 30.1 12.8259 30.2405 12.5435 30.27C12.261 30.2995 11.9784 30.2156 11.7578 30.0367C9.72409 28.3886 8.24247 26.1584 7.51137 23.6448C6.78028 21.1312 6.83461 18.4543 7.66709 15.9724C8.49957 13.4906 10.0705 11.3223 12.1694 9.75802C14.2683 8.19372 16.7951 7.30805 19.4113 7.2196L18.0198 5.82806C17.8191 5.62732 17.7064 5.3551 17.7064 5.07127C17.7064 4.78743 17.8191 4.51521 18.0198 4.31448H18.0177ZM26.429 10.2361C26.608 10.0159 26.867 9.87572 27.1492 9.84642C27.4314 9.81712 27.7137 9.90105 27.934 10.0798C29.9678 11.728 31.4494 13.9582 32.1805 16.4717C32.9116 18.9853 32.8573 21.6623 32.0248 24.1441C31.1923 26.6259 29.6214 28.7942 27.5225 30.3585C25.4235 31.9228 22.8968 32.8085 20.2805 32.8969L21.6721 34.2885C21.8671 34.4903 21.975 34.7607 21.9725 35.0414C21.9701 35.3221 21.8575 35.5905 21.659 35.789C21.4606 35.9875 21.1921 36.1 20.9114 36.1025C20.6308 36.1049 20.3604 35.997 20.1585 35.802L16.9472 32.5908C16.8475 32.4913 16.7685 32.3732 16.7145 32.2432C16.6605 32.1131 16.6328 31.9737 16.6328 31.8329C16.6328 31.6921 16.6605 31.5527 16.7145 31.4227C16.7685 31.2926 16.8475 31.1745 16.9472 31.075L20.1585 27.8638C20.3595 27.6628 20.6321 27.5499 20.9164 27.5499C21.2006 27.5499 21.4732 27.6628 21.6742 27.8638C21.8752 28.0648 21.9881 28.3374 21.9881 28.6216C21.9881 28.9059 21.8752 29.1785 21.6742 29.3795L20.2977 30.7539C22.4694 30.6621 24.5618 29.9113 26.2964 28.6013C28.0311 27.2913 29.3258 25.4843 30.0084 23.4205C30.6909 21.3568 30.729 19.1341 30.1176 17.0481C29.5061 14.9622 28.2741 13.1119 26.5853 11.7432C26.476 11.6546 26.3852 11.5453 26.3182 11.4215C26.2511 11.2978 26.2091 11.162 26.1946 11.022C26.1801 10.8821 26.1933 10.7406 26.2336 10.6057C26.2738 10.4708 26.3402 10.3452 26.429 10.2361Z" fill="#1E3C72"/>
</svg>
